<svg width="132" height="96" xmlns="http://www.w3.org/2000/svg">
 <defs>
  <pattern viewBox="2.1 -70.9 69 69" id="Òî_xF7_å_xF7_íûé_óçîð__x22_Ïîëüêà_x22_" patternUnits="userSpaceOnUse" height="69" width="69" y="10220" x="-1565">
   <g id="svg_1">
    <polygon id="svg_2" points="71.1,-1.9 2.1,-1.9 2.1,-70.9 71.1,-70.9   " fill="none"/>
    <polygon id="svg_3" points="71.1,-1.9 2.1,-1.9 2.1,-70.9 71.1,-70.9   " fill="#F7BC60"/>
    <g id="svg_4">
     <path id="svg_5" d="m61.8,-71.7c0,0.1 0,0.1 0,0.2c-0.1,0.1 -0.1,0.1 -0.2,0.1c-0.1,0.1 -0.1,0.3 -0.1,0.4c-0.2,0.1 0,0.2 0,0.3c0,0 0,0.1 0,0.2c0,0.1 0,0.3 0.1,0.4c0.1,0.2 0.3,0.4 0.4,0.5c0.2,0.1 0.4,0.6 0.6,0.6c0.2,0 0.4,-0.1 0.5,-0.1c0.2,0 0.4,0 0.6,-0.1c0.2,-0.1 0.1,-0.3 0.3,-0.5c0.1,-0.1 0.3,0 0.4,-0.1c0.2,-0.1 0.3,-0.3 0.4,-0.5c0,-0.1 0,-0.1 0,-0.2c0,-0.1 0.1,-0.2 0.1,-0.3c0,-0.1 -0.1,-0.1 -0.1,-0.2c0,-0.1 0,-0.2 0,-0.3c0,-0.2 0,-0.4 -0.1,-0.5c-0.4,-0.7 -1.2,-0.9 -2,-0.8c-0.2,0 -0.3,0.1 -0.4,0.2c-0.2,0.1 -0.1,0.2 -0.3,0.2c-0.1,0 -0.2,0.1 -0.2,0.2c0,0.3 0,0.3 0,0.3c0,0.1 0,0.1 0,0" fill="#FFFFFF"/>
     <path id="svg_6" d="m54.1,-71.7c0,0.1 0,0.1 0,0.2c-0.1,0.1 -0.1,0.1 -0.2,0.1c-0.1,0.1 -0.1,0.3 -0.1,0.4c-0.2,0.1 0,0.2 0,0.3c0,0 0,0.1 0,0.2c0,0.1 0,0.3 0.1,0.4c0.1,0.2 0.3,0.4 0.4,0.5c0.2,0.1 0.4,0.6 0.6,0.6c0.2,0 0.4,-0.1 0.5,-0.1c0.2,0 0.4,0 0.6,-0.1c0.2,-0.1 0.1,-0.3 0.3,-0.5c0.1,-0.1 0.3,0 0.4,-0.1c0.2,-0.1 0.3,-0.3 0.4,-0.5c0,-0.1 0,-0.1 0,-0.2c0,-0.1 0.1,-0.2 0.1,-0.3c0,-0.1 -0.1,-0.1 -0.1,-0.2c0,-0.1 0,-0.2 0,-0.3c0,-0.2 0,-0.4 -0.1,-0.5c-0.4,-0.7 -1.2,-0.9 -2,-0.8c-0.2,0 -0.3,0.1 -0.4,0.2c-0.2,0.1 -0.1,0.2 -0.3,0.2c-0.1,0 -0.2,0.1 -0.2,0.2c0,0.3 0,0.3 0,0.3c0,0.1 0,0.1 0,0" fill="#FFFFFF"/>
     <path id="svg_7" d="m46.4,-71.7c0,0.1 0,0.1 0,0.2c-0.1,0.1 -0.1,0.1 -0.2,0.1c-0.1,0.1 -0.1,0.3 -0.1,0.4c-0.2,0.1 0,0.2 0,0.3c0,0 0,0.1 0,0.2c0,0.1 0,0.3 0.1,0.4c0.1,0.2 0.3,0.4 0.4,0.5c0.2,0.1 0.4,0.6 0.6,0.6c0.2,0 0.4,-0.1 0.5,-0.1c0.2,0 0.4,0 0.6,-0.1c0.2,-0.1 0.1,-0.3 0.3,-0.5c0.1,-0.1 0.3,0 0.4,-0.1c0.2,-0.1 0.3,-0.3 0.4,-0.5c0,-0.1 0,-0.1 0,-0.2c0,-0.1 0.1,-0.2 0.1,-0.3c0,-0.1 -0.1,-0.1 -0.1,-0.2c0,-0.1 0,-0.2 0,-0.3c0,-0.2 0,-0.4 -0.1,-0.5c-0.4,-0.7 -1.2,-0.9 -2,-0.8c-0.2,0 -0.3,0.1 -0.4,0.2c-0.2,0.1 -0.1,0.2 -0.3,0.2c-0.1,0 -0.2,0.1 -0.2,0.2c0,0.3 0,0.3 0,0.3c0,0.1 0,0.1 0,0" fill="#FFFFFF"/>
     <path id="svg_8" d="m38.8,-71.7c0,0.1 0,0.1 0,0.2c-0.1,0.1 -0.1,0.1 -0.2,0.1c-0.1,0.1 -0.1,0.3 -0.1,0.4c-0.2,0.1 0,0.2 0,0.3c0,0 0,0.1 0,0.2c0,0.1 0,0.3 0.1,0.4c0.1,0.2 0.3,0.4 0.4,0.5c0.2,0.1 0.4,0.6 0.6,0.6c0.2,0 0.4,-0.1 0.5,-0.1c0.2,0 0.4,0 0.6,-0.1c0.2,-0.1 0.1,-0.3 0.3,-0.5c0.1,-0.1 0.3,0 0.4,-0.1c0.2,-0.1 0.3,-0.3 0.4,-0.5c0,-0.1 0,-0.1 0,-0.2c0,-0.1 0.1,-0.2 0.1,-0.3c0,-0.1 -0.1,-0.1 -0.1,-0.2c0,-0.1 0,-0.2 0,-0.3c0,-0.2 0,-0.4 -0.1,-0.5c-0.4,-0.7 -1.2,-0.9 -2,-0.8c-0.2,0 -0.3,0.1 -0.4,0.2c-0.2,0.1 -0.1,0.2 -0.3,0.2c-0.1,0 -0.2,0.1 -0.2,0.2c0,0.3 0,0.3 0,0.3c0,0.1 0,0.1 0,0" fill="#FFFFFF"/>
     <path id="svg_9" d="m31.1,-71.7c0,0.1 0,0.1 0,0.2c-0.1,0.1 -0.1,0.1 -0.2,0.1c-0.1,0.1 -0.1,0.3 -0.1,0.4c-0.2,0.1 0,0.2 0,0.3c0,0 0,0.1 0,0.2c0,0.1 0,0.3 0.1,0.4c0.1,0.2 0.3,0.4 0.4,0.5c0.2,0.1 0.4,0.6 0.6,0.6c0.2,0 0.4,-0.1 0.5,-0.1c0.2,0 0.4,0 0.6,-0.1c0.2,-0.1 0.1,-0.3 0.3,-0.5c0.1,-0.1 0.3,0 0.4,-0.1c0.2,-0.1 0.3,-0.3 0.4,-0.5c0,-0.1 0,-0.1 0,-0.2c0,-0.1 0.1,-0.2 0.1,-0.3c0,-0.1 -0.1,-0.1 -0.1,-0.2c0,-0.1 0,-0.2 0,-0.3c0,-0.2 0,-0.4 -0.1,-0.5c-0.4,-0.7 -1.2,-0.9 -2,-0.8c-0.2,0 -0.3,0.1 -0.4,0.2c-0.2,0.1 -0.1,0.2 -0.3,0.2c-0.1,0 -0.2,0.1 -0.2,0.2c0,0.3 0,0.3 0,0.3c0,0.1 0,0.1 0,0" fill="#FFFFFF"/>
     <path id="svg_10" d="m23.4,-71.7c0,0.1 0,0.1 0,0.2c-0.1,0.1 -0.1,0.1 -0.2,0.1c-0.1,0.1 -0.1,0.3 -0.1,0.4c-0.2,0.1 0,0.2 0,0.3c0,0 0,0.1 0,0.2c0,0.1 0,0.3 0.1,0.4c0.1,0.2 0.3,0.4 0.4,0.5c0.2,0.1 0.4,0.6 0.6,0.6c0.2,0 0.4,-0.1 0.5,-0.1c0.2,0 0.4,0 0.6,-0.1c0.2,-0.1 0.1,-0.3 0.3,-0.5c0.1,-0.1 0.3,0 0.4,-0.1c0.2,-0.1 0.3,-0.3 0.4,-0.5c0,-0.1 0,-0.1 0,-0.2c0,-0.1 0.1,-0.2 0.1,-0.3c0,-0.1 -0.1,-0.1 -0.1,-0.2c0,-0.1 0,-0.2 0,-0.3c0,-0.2 0,-0.4 -0.1,-0.5c-0.4,-0.7 -1.2,-0.9 -2,-0.8c-0.2,0 -0.3,0.1 -0.4,0.2c-0.2,0.1 -0.1,0.2 -0.3,0.2c-0.1,0 -0.2,0.1 -0.2,0.2c0,0.3 0,0.3 0,0.3c0,0.1 0,0.1 0,0" fill="#FFFFFF"/>
     <path id="svg_11" d="m15.8,-71.7c0,0.1 0,0.1 0,0.2c-0.1,0.1 -0.1,0.1 -0.2,0.1c-0.1,0.1 -0.1,0.3 -0.1,0.4c-0.2,0.1 0,0.2 0,0.3c0,0 0,0.1 0,0.2c0,0.1 0,0.3 0.1,0.4c0.1,0.2 0.3,0.4 0.4,0.5c0.2,0.1 0.4,0.6 0.6,0.6c0.2,0 0.4,-0.1 0.5,-0.1c0.2,0 0.4,0 0.6,-0.1c0.2,-0.1 0.1,-0.3 0.3,-0.5c0.1,-0.1 0.3,0 0.4,-0.1c0.2,-0.1 0.3,-0.3 0.4,-0.5c0,-0.1 0,-0.1 0,-0.2c0,-0.1 0.1,-0.2 0.1,-0.3c0,-0.1 -0.1,-0.1 -0.1,-0.2c0,-0.1 0,-0.2 0,-0.3c0,-0.2 0,-0.4 -0.1,-0.5c-0.4,-0.7 -1.2,-0.9 -2,-0.8c-0.2,0 -0.3,0.1 -0.4,0.2c-0.2,0.1 -0.1,0.2 -0.3,0.2c-0.1,0 -0.2,0.1 -0.2,0.2c0,0.3 0,0.3 0,0.3c0,0.1 0,0.1 0,0" fill="#FFFFFF"/>
     <path id="svg_12" d="m8.1,-71.7c0,0.1 0,0.1 0,0.2c-0.1,0.1 -0.1,0.1 -0.2,0.2c-0.1,0.1 -0.1,0.3 -0.1,0.4c-0.2,0.1 0,0.2 0,0.3c0,0 0,0.1 0,0.2c0,0.1 0,0.3 0.1,0.4c0.1,0.2 0.3,0.4 0.4,0.5c0.2,0.1 0.4,0.6 0.6,0.6c0.2,0 0.4,-0.1 0.5,-0.1c0.2,0 0.4,0 0.6,-0.1c0.2,-0.1 0.1,-0.3 0.3,-0.5c0.1,-0.1 0.3,0 0.4,-0.1c0.2,-0.1 0.3,-0.3 0.4,-0.5c0,-0.1 0,-0.1 0,-0.2c0,-0.1 0.1,-0.2 0.1,-0.3c0,-0.1 -0.1,-0.1 -0.1,-0.2c0,-0.1 0,-0.2 0,-0.3c0,-0.2 0,-0.4 -0.1,-0.5c-0.4,-0.7 -1.2,-0.9 -2,-0.8c-0.2,0 -0.3,0.1 -0.4,0.2c-0.2,0.1 -0.1,0.2 -0.3,0.2c-0.1,0 -0.2,0.1 -0.2,0.2c0,0.2 0,0.2 0,0.2c0,0.1 0,0.1 0,0" fill="#FFFFFF"/>
     <path id="svg_13" d="m0.4,-71.7c0,0.1 0,0.1 0,0.2c-0.1,0.1 -0.1,0.1 -0.2,0.1c-0.1,0.1 -0.1,0.3 -0.1,0.4c-0.2,0.1 0,0.2 0,0.3c0,0 0,0.1 0,0.2c0,0.1 0,0.3 0.1,0.4c0.1,0.2 0.3,0.4 0.4,0.5c0.2,0.2 0.4,0.6 0.6,0.7c0.2,0 0.4,-0.1 0.5,-0.1c0.2,0 0.4,0 0.6,-0.1c0.2,-0.1 0.1,-0.3 0.3,-0.5c0.1,-0.1 0.3,0 0.4,-0.1c0.2,-0.1 0.3,-0.3 0.4,-0.5c0,-0.1 0,-0.1 0,-0.2c0,-0.1 0.1,-0.2 0.1,-0.3c0,-0.1 -0.1,-0.1 -0.1,-0.2c0,-0.1 0,-0.2 0,-0.3c0,-0.2 0,-0.4 -0.1,-0.5c-0.4,-0.7 -1.2,-0.9 -2,-0.8c-0.2,0 -0.3,0.1 -0.4,0.2c-0.2,0.1 -0.1,0.2 -0.3,0.2c-0.1,0 -0.2,0.1 -0.2,0.2c0,0.2 0,0.2 0,0.2c0,0.1 0,0.1 0,0" fill="#FFFFFF"/>
    </g>
    <g id="svg_14">
     <path id="svg_15" d="m69.4,-71.7c0,0.1 0,0.1 0,0.2c-0.1,0.1 -0.1,0.1 -0.2,0.1c-0.1,0.1 -0.1,0.3 -0.1,0.4c-0.2,0.1 0,0.2 0,0.3c0,0 0,0.1 0,0.2c0,0.1 0,0.3 0.1,0.4c0.1,0.2 0.3,0.4 0.4,0.5c0.2,0.1 0.4,0.6 0.6,0.6c0.2,0 0.4,-0.1 0.5,-0.1c0.2,0 0.4,0 0.6,-0.1c0.2,-0.1 0.1,-0.3 0.3,-0.5c0.1,-0.1 0.3,0 0.4,-0.1c0.2,-0.1 0.3,-0.3 0.4,-0.5c0,-0.1 0,-0.1 0,-0.2c0,-0.1 0.1,-0.2 0.1,-0.3c0,-0.1 -0.1,-0.1 -0.1,-0.2c0,-0.1 0,-0.2 0,-0.3c0,-0.2 0,-0.4 -0.1,-0.5c-0.4,-0.7 -1.2,-0.9 -2,-0.8c-0.2,0 -0.3,0.1 -0.4,0.2c-0.2,0.1 -0.1,0.2 -0.3,0.2c-0.1,0 -0.2,0.1 -0.2,0.2c0,0.3 0,0.3 0,0.3c0,0.1 0,0.1 0,0" fill="#FFFFFF"/>
    </g>
    <path id="svg_16" d="m0.5,-71.7c0,0.1 0,0.1 0,0.2c-0.1,0.1 -0.1,0.1 -0.2,0.1c-0.1,0.1 -0.1,0.3 -0.1,0.4c-0.2,0.1 0,0.2 0,0.3c0,0 0,0.1 0,0.2c0,0.1 0,0.3 0.1,0.4c0.1,0.2 0.3,0.4 0.4,0.5c0.2,0.2 0.3,0.6 0.6,0.7c0.2,0 0.4,-0.1 0.5,-0.1c0.2,0 0.4,0 0.6,-0.1c0.2,-0.1 0.1,-0.3 0.3,-0.5c0.1,-0.1 0.3,0 0.4,-0.1c0.2,-0.1 0.3,-0.3 0.4,-0.5c0,-0.1 0,-0.1 0,-0.2c0,-0.1 0.1,-0.2 0.1,-0.3c0,-0.1 -0.1,-0.1 -0.1,-0.2c0,-0.1 0,-0.2 0,-0.3c0,-0.2 0,-0.4 -0.1,-0.5c-0.4,-0.7 -1.2,-0.9 -2,-0.8c-0.2,0 -0.3,0.1 -0.4,0.2c-0.2,0.1 -0.1,0.2 -0.3,0.2c-0.1,0 -0.2,0.1 -0.2,0.2c0,0.2 0,0.2 0,0.2c0,0.1 0,0.1 0,0" fill="#FFFFFF"/>
    <g id="svg_17">
     <g id="svg_18">
      <path id="svg_19" d="m69.4,-64c0,0.1 0,0.1 0,0.2c-0.1,0.1 -0.1,0.1 -0.2,0.1c-0.1,0.1 -0.1,0.3 -0.1,0.4c-0.2,0.1 0,0.2 0,0.3c0,0 0,0.1 0,0.2c0,0.1 0,0.3 0.1,0.4c0.1,0.2 0.3,0.4 0.4,0.5c0.2,0.1 0.4,0.6 0.6,0.6c0.2,0 0.4,-0.1 0.5,-0.1c0.2,0 0.4,0 0.6,-0.1c0.2,-0.1 0.1,-0.3 0.3,-0.5c0.1,-0.1 0.3,0 0.4,-0.1c0.2,-0.1 0.3,-0.3 0.4,-0.5c0,-0.1 0,-0.1 0,-0.2c0,-0.1 0.1,-0.2 0.1,-0.3c0,-0.1 -0.1,-0.1 -0.1,-0.2c0,-0.1 0,-0.2 0,-0.3c0,-0.2 0,-0.4 -0.1,-0.5c-0.4,-0.7 -1.2,-0.9 -2,-0.8c-0.2,0 -0.3,0.1 -0.4,0.2c-0.2,0.1 -0.1,0.2 -0.3,0.2c-0.1,0 -0.2,0.1 -0.2,0.2c0,0.3 0,0.2 0,0.3c0,0 0,0 0,0" fill="#FFFFFF"/>
      <path id="svg_20" d="m61.8,-64c0,0.1 0,0.1 0,0.2c-0.1,0.1 -0.1,0.1 -0.2,0.1c-0.1,0.1 -0.1,0.3 -0.1,0.4c-0.2,0.1 0,0.2 0,0.3c0,0 0,0.1 0,0.2c0,0.1 0,0.3 0.1,0.4c0.1,0.2 0.3,0.4 0.4,0.5c0.2,0.1 0.4,0.6 0.6,0.6c0.2,0 0.4,-0.1 0.5,-0.1c0.2,0 0.4,0 0.6,-0.1c0.2,-0.1 0.1,-0.3 0.3,-0.5c0.1,-0.1 0.3,0 0.4,-0.1c0.2,-0.1 0.3,-0.3 0.4,-0.5c0,-0.1 0,-0.1 0,-0.2c0,-0.1 0.1,-0.2 0.1,-0.3c0,-0.1 -0.1,-0.1 -0.1,-0.2c0,-0.1 0,-0.2 0,-0.3c0,-0.2 0,-0.4 -0.1,-0.5c-0.4,-0.7 -1.2,-0.9 -2,-0.8c-0.2,0 -0.3,0.1 -0.4,0.2c-0.2,0.1 -0.1,0.2 -0.3,0.2c-0.1,0 -0.2,0.1 -0.2,0.2c0,0.3 0,0.2 0,0.3c0,0 0,0 0,0" fill="#FFFFFF"/>
      <path id="svg_21" d="m54.1,-64c0,0.1 0,0.1 0,0.2c-0.1,0.1 -0.1,0.1 -0.2,0.1c-0.1,0.1 -0.1,0.3 -0.1,0.4c-0.2,0.1 0,0.2 0,0.3c0,0 0,0.1 0,0.2c0,0.1 0,0.3 0.1,0.4c0.1,0.2 0.3,0.4 0.4,0.5c0.2,0.1 0.4,0.6 0.6,0.6c0.2,0 0.4,-0.1 0.5,-0.1c0.2,0 0.4,0 0.6,-0.1c0.2,-0.1 0.1,-0.3 0.3,-0.5c0.1,-0.1 0.3,0 0.4,-0.1c0.2,-0.1 0.3,-0.3 0.4,-0.5c0,-0.1 0,-0.1 0,-0.2c0,-0.1 0.1,-0.2 0.1,-0.3c0,-0.1 -0.1,-0.1 -0.1,-0.2c0,-0.1 0,-0.2 0,-0.3c0,-0.2 0,-0.4 -0.1,-0.5c-0.4,-0.7 -1.2,-0.9 -2,-0.8c-0.2,0 -0.3,0.1 -0.4,0.2c-0.2,0.1 -0.1,0.2 -0.3,0.2c-0.1,0 -0.2,0.1 -0.2,0.2c0,0.3 0,0.2 0,0.3c0,0 0,0 0,0" fill="#FFFFFF"/>
      <path id="svg_22" d="m46.5,-64c0,0.1 0,0.1 0,0.2c-0.1,0.1 -0.1,0.1 -0.2,0.1c-0.1,0.1 -0.1,0.3 -0.1,0.4c-0.2,0.1 0,0.2 0,0.3c0,0 0,0.1 0,0.2c0,0.1 0,0.3 0.1,0.4c0.1,0.2 0.3,0.4 0.4,0.5c0.2,0.1 0.4,0.6 0.6,0.6c0.2,0 0.4,-0.1 0.5,-0.1c0.2,0 0.4,0 0.6,-0.1c0.2,-0.1 0.1,-0.3 0.3,-0.5c0.1,-0.1 0.3,0 0.4,-0.1c0.2,-0.1 0.3,-0.3 0.4,-0.5c0,-0.1 0,-0.1 0,-0.2c0,-0.1 0.1,-0.2 0.1,-0.3c0,-0.1 -0.1,-0.1 -0.1,-0.2c0,-0.1 0,-0.2 0,-0.3c0,-0.2 0,-0.4 -0.1,-0.5c-0.4,-0.7 -1.2,-0.9 -2,-0.8c-0.2,0 -0.3,0.1 -0.4,0.2c-0.2,0.1 -0.1,0.2 -0.3,0.2c-0.1,0 -0.2,0.1 -0.2,0.2c0,0.3 0,0.2 0,0.3c0,0 0,0 0,0" fill="#FFFFFF"/>
      <path id="svg_23" d="m38.8,-64c0,0.1 0,0.1 0,0.2c-0.1,0.1 -0.1,0.1 -0.2,0.1c-0.1,0.1 -0.1,0.3 -0.1,0.4c-0.2,0.1 0,0.2 0,0.3c0,0 0,0.1 0,0.2c0,0.1 0,0.3 0.1,0.4c0.1,0.2 0.3,0.4 0.4,0.5c0.2,0.1 0.4,0.6 0.6,0.6c0.2,0 0.4,-0.1 0.5,-0.1c0.2,0 0.4,0 0.6,-0.1c0.2,-0.1 0.1,-0.3 0.3,-0.5c0.1,-0.1 0.3,0 0.4,-0.1c0.2,-0.1 0.3,-0.3 0.4,-0.5c0,-0.1 0,-0.1 0,-0.2c0,-0.1 0.1,-0.2 0.1,-0.3c0,-0.1 -0.1,-0.1 -0.1,-0.2c0,-0.1 0,-0.2 0,-0.3c0,-0.2 0,-0.4 -0.1,-0.5c-0.4,-0.7 -1.2,-0.9 -2,-0.8c-0.2,0 -0.3,0.1 -0.4,0.2c-0.2,0.1 -0.1,0.2 -0.3,0.2c-0.1,0 -0.2,0.1 -0.2,0.2c0,0.3 0,0.2 0,0.3c0,0 0,0 0,0" fill="#FFFFFF"/>
      <path id="svg_24" d="m31.1,-64c0,0.1 0,0.1 0,0.2c-0.1,0.1 -0.1,0.1 -0.2,0.1c-0.1,0.1 -0.1,0.3 -0.1,0.4c-0.2,0.1 0,0.2 0,0.3c0,0 0,0.1 0,0.2c0,0.1 0,0.3 0.1,0.4c0.1,0.2 0.3,0.4 0.4,0.5c0.2,0.1 0.4,0.6 0.6,0.6c0.2,0 0.4,-0.1 0.5,-0.1c0.2,0 0.4,0 0.6,-0.1c0.2,-0.1 0.1,-0.3 0.3,-0.5c0.1,-0.1 0.3,0 0.4,-0.1c0.2,-0.1 0.3,-0.3 0.4,-0.5c0,-0.1 0,-0.1 0,-0.2c0,-0.1 0.1,-0.2 0.1,-0.3c0,-0.1 -0.1,-0.1 -0.1,-0.2c0,-0.1 0,-0.2 0,-0.3c0,-0.2 0,-0.4 -0.1,-0.5c-0.4,-0.7 -1.2,-0.9 -2,-0.8c-0.2,0 -0.3,0.1 -0.4,0.2c-0.2,0.1 -0.1,0.2 -0.3,0.2c-0.1,0 -0.2,0.1 -0.2,0.2c0,0.3 0,0.2 0,0.3c0,0 0,0 0,0" fill="#FFFFFF"/>
      <path id="svg_25" d="m23.5,-64c0,0.1 0,0.1 0,0.2c-0.1,0.1 -0.1,0.1 -0.2,0.1c-0.1,0.1 -0.1,0.3 -0.1,0.4c-0.2,0.1 0,0.2 0,0.3c0,0 0,0.1 0,0.2c0,0.1 0,0.3 0.1,0.4c0.1,0.2 0.3,0.4 0.4,0.5c0.2,0.1 0.4,0.6 0.6,0.6c0.2,0 0.4,-0.1 0.5,-0.1c0.2,0 0.4,0 0.6,-0.1c0.2,-0.1 0.1,-0.3 0.3,-0.5c0.1,-0.1 0.3,0 0.4,-0.1c0.2,-0.1 0.3,-0.3 0.4,-0.5c0,-0.1 0,-0.1 0,-0.2c0,-0.1 0.1,-0.2 0.1,-0.3c0,-0.1 -0.1,-0.1 -0.1,-0.2c0,-0.1 0,-0.2 0,-0.3c0,-0.2 0,-0.4 -0.1,-0.5c-0.4,-0.7 -1.2,-0.9 -2,-0.8c-0.2,0 -0.3,0.1 -0.4,0.2c-0.2,0.1 -0.1,0.2 -0.3,0.2c-0.1,0 -0.2,0.1 -0.2,0.2c0,0.3 0,0.2 0,0.3c0,0 0,0 0,0" fill="#FFFFFF"/>
      <path id="svg_26" d="m15.8,-64c0,0.1 0,0.1 0,0.2c-0.1,0.1 -0.1,0.1 -0.2,0.1c-0.1,0.1 -0.1,0.3 -0.1,0.4c-0.2,0.1 0,0.2 0,0.3c0,0 0,0.1 0,0.2c0,0.1 0,0.3 0.1,0.4c0.1,0.2 0.3,0.4 0.4,0.5c0.2,0.1 0.4,0.6 0.6,0.6c0.2,0 0.4,-0.1 0.5,-0.1c0.2,0 0.4,0 0.6,-0.1c0.2,-0.1 0.1,-0.3 0.3,-0.5c0.1,-0.1 0.3,0 0.4,-0.1c0.2,-0.1 0.3,-0.3 0.4,-0.5c0,-0.1 0,-0.1 0,-0.2c0,-0.1 0.1,-0.2 0.1,-0.3c0,-0.1 -0.1,-0.1 -0.1,-0.2c0,-0.1 0,-0.2 0,-0.3c0,-0.2 0,-0.4 -0.1,-0.5c-0.4,-0.7 -1.2,-0.9 -2,-0.8c-0.2,0 -0.3,0.1 -0.4,0.2c-0.2,0.1 -0.1,0.2 -0.3,0.2c-0.1,0 -0.2,0.1 -0.2,0.2c0,0.3 0,0.2 0,0.3c0,0 0,0 0,0" fill="#FFFFFF"/>
      <path id="svg_27" d="m8.2,-64c0,0.1 0,0.1 0,0.2c-0.1,0.1 -0.2,0.1 -0.2,0.1c-0.1,0.1 -0.1,0.3 -0.1,0.4c-0.2,0.1 0,0.2 0,0.3c0,0 0,0.1 0,0.2c0,0.1 0,0.3 0.1,0.4c0,0.2 0.2,0.4 0.3,0.5c0.2,0.1 0.4,0.6 0.6,0.6c0.2,0 0.4,-0.1 0.5,-0.1c0.2,0 0.4,0 0.6,-0.1c0.2,-0.1 0.1,-0.3 0.3,-0.5c0.1,-0.1 0.3,0 0.4,-0.1c0.2,-0.1 0.3,-0.3 0.4,-0.5c0,-0.1 0,-0.1 0,-0.2c0,-0.1 0.1,-0.2 0.1,-0.3c0,-0.1 -0.1,-0.1 -0.1,-0.2c0,-0.1 0,-0.2 0,-0.3c0,-0.2 0,-0.4 -0.1,-0.5c-0.4,-0.7 -1.2,-0.9 -2,-0.8c-0.2,0 -0.3,0.1 -0.4,0.2c-0.2,0.1 -0.1,0.2 -0.3,0.2c-0.1,0 -0.2,0.1 -0.2,0.2c0.1,0.3 0.1,0.2 0.1,0.3c-0.1,0 -0.1,0 0,0" fill="#FFFFFF"/>
      <path id="svg_28" d="m0.5,-64c0,0.1 0,0.1 0,0.2c-0.1,0.1 -0.1,0.1 -0.2,0.1c-0.1,0.1 -0.1,0.3 -0.1,0.4c-0.2,0.1 0,0.2 0,0.3c0,0 0,0.1 0,0.2c0,0.1 0,0.3 0.1,0.4c0.1,0.2 0.3,0.4 0.4,0.5c0.2,0.1 0.4,0.6 0.6,0.6c0.2,0 0.4,-0.1 0.5,-0.1c0.2,0 0.4,0 0.6,-0.1c0.2,-0.1 0.1,-0.3 0.3,-0.5c0.1,0 0.3,0.1 0.4,0c0.2,-0.1 0.3,-0.3 0.4,-0.5c0,-0.1 0,-0.1 0,-0.2c0,-0.1 0.1,-0.2 0.1,-0.3c0,-0.1 -0.1,-0.1 -0.1,-0.2c0,-0.1 0,-0.2 0,-0.3c0,-0.2 0,-0.4 -0.1,-0.5c-0.4,-0.7 -1.2,-0.9 -2,-0.8c-0.2,0 -0.3,0.1 -0.4,0.2c-0.2,0.1 -0.1,0.2 -0.3,0.2c-0.1,0 -0.2,0.1 -0.2,0.2c0,0.2 0,0.1 0,0.2c0,0 0,0 0,0" fill="#FFFFFF"/>
     </g>
     <g id="svg_29">
      <path id="svg_30" d="m69.4,-56.3c0,0.1 0,0.1 0,0.2c-0.1,0.1 -0.1,0.1 -0.2,0.1c-0.1,0.1 -0.1,0.3 -0.1,0.4c-0.2,0.1 0,0.2 0,0.3c0,0 0,0.1 0,0.2c0,0.1 0,0.3 0.1,0.4c0.1,0.2 0.3,0.4 0.4,0.5c0.2,0.1 0.4,0.6 0.6,0.6c0.2,0 0.4,-0.1 0.5,-0.1c0.2,0 0.4,0 0.6,-0.1c0.2,-0.1 0.1,-0.3 0.3,-0.5c0.1,-0.1 0.3,0 0.4,-0.1c0.2,-0.1 0.3,-0.3 0.4,-0.5c0,-0.1 0,-0.1 0,-0.2c0,-0.1 0.1,-0.2 0.1,-0.3c0,-0.1 -0.1,-0.1 -0.1,-0.2c0,-0.1 0,-0.2 0,-0.3c0,-0.2 0,-0.4 -0.1,-0.5c-0.4,-0.7 -1.2,-0.9 -2,-0.8c-0.2,0 -0.3,0.1 -0.4,0.2c-0.2,0.1 -0.1,0.2 -0.3,0.2c-0.1,0 -0.2,0.1 -0.2,0.2c0,0.2 0,0.2 0,0.3c0,0 0,0 0,0" fill="#FFFFFF"/>
      <path id="svg_31" d="m61.8,-56.3c0,0.1 0,0.1 0,0.2c-0.1,0.1 -0.1,0.1 -0.2,0.1c-0.1,0.1 -0.1,0.3 -0.1,0.4c-0.2,0.1 0,0.2 0,0.3c0,0 0,0.1 0,0.2c0,0.1 0,0.3 0.1,0.4c0.1,0.2 0.3,0.4 0.4,0.5c0.2,0.1 0.4,0.6 0.6,0.6c0.2,0 0.4,-0.1 0.5,-0.1c0.2,0 0.4,0 0.6,-0.1c0.2,-0.1 0.1,-0.3 0.3,-0.5c0.1,-0.1 0.3,0 0.4,-0.1c0.2,-0.1 0.3,-0.3 0.4,-0.5c0,-0.1 0,-0.1 0,-0.2c0,-0.1 0.1,-0.2 0.1,-0.3c0,-0.1 -0.1,-0.1 -0.1,-0.2c0,-0.1 0,-0.2 0,-0.3c0,-0.2 0,-0.4 -0.1,-0.5c-0.4,-0.7 -1.2,-0.9 -2,-0.8c-0.2,0 -0.3,0.1 -0.4,0.2c-0.2,0.1 -0.1,0.2 -0.3,0.2c-0.1,0 -0.2,0.1 -0.2,0.2c0,0.2 0,0.2 0,0.3c0,0 0,0 0,0" fill="#FFFFFF"/>
      <path id="svg_32" d="m54.1,-56.3c0,0.1 0,0.1 0,0.2c-0.1,0 -0.1,0 -0.2,0.1c-0.1,0.1 -0.1,0.3 -0.1,0.4c-0.2,0.1 0,0.2 0,0.3c0,0 0,0.1 0,0.2c0,0.1 0,0.3 0.1,0.4c0.1,0.2 0.3,0.4 0.4,0.5c0.2,0.1 0.4,0.6 0.6,0.6c0.2,0 0.4,-0.1 0.5,-0.1c0.2,0 0.4,0 0.6,-0.1c0.2,-0.1 0.1,-0.3 0.3,-0.5c0.1,-0.1 0.3,0 0.4,-0.1c0.2,-0.1 0.3,-0.3 0.4,-0.5c0,-0.1 0,-0.1 0,-0.2c0,-0.1 0.1,-0.2 0.1,-0.3c0,-0.1 -0.1,-0.1 -0.1,-0.2c0,-0.1 0,-0.2 0,-0.3c0,-0.2 0,-0.4 -0.1,-0.5c-0.4,-0.7 -1.2,-0.9 -2,-0.8c-0.2,0 -0.3,0.1 -0.4,0.2c-0.2,0.1 -0.1,0.2 -0.3,0.2c-0.1,0 -0.2,0.1 -0.2,0.2c0,0.2 0,0.2 0,0.3c0,0 0,0 0,0" fill="#FFFFFF"/>
      <path id="svg_33" d="m46.5,-56.3c0,0.1 0,0.1 0,0.2c-0.1,0.1 -0.1,0.1 -0.2,0.1c-0.1,0.1 -0.1,0.3 -0.1,0.4c-0.2,0.1 0,0.2 0,0.3c0,0 0,0.1 0,0.2c0,0.1 0,0.3 0.1,0.4c0.1,0.2 0.3,0.4 0.4,0.5c0.2,0.1 0.4,0.6 0.6,0.6c0.2,0 0.4,-0.1 0.5,-0.1c0.2,0 0.4,0 0.6,-0.1c0.2,-0.1 0.1,-0.3 0.3,-0.5c0.1,-0.1 0.3,0 0.4,-0.1c0.2,-0.1 0.3,-0.3 0.4,-0.5c0,-0.1 0,-0.1 0,-0.2c0,-0.1 0.1,-0.2 0.1,-0.3c0,-0.1 -0.1,-0.1 -0.1,-0.2c0,-0.1 0,-0.2 0,-0.3c0,-0.2 0,-0.4 -0.1,-0.5c-0.4,-0.7 -1.2,-0.9 -2,-0.8c-0.2,0 -0.3,0.1 -0.4,0.2c-0.2,0.1 -0.1,0.2 -0.3,0.2c-0.1,0 -0.2,0.1 -0.2,0.2c0,0.2 0,0.2 0,0.3c0,0 0,0 0,0" fill="#FFFFFF"/>
      <path id="svg_34" d="m38.8,-56.3c0,0.1 0,0.1 0,0.2c-0.1,0.1 -0.1,0.1 -0.2,0.1c-0.1,0.1 -0.1,0.3 -0.1,0.4c-0.2,0.1 0,0.2 0,0.3c0,0 0,0.1 0,0.2c0,0.1 0,0.3 0.1,0.4c0.1,0.2 0.3,0.4 0.4,0.5c0.2,0.1 0.4,0.6 0.6,0.6c0.2,0 0.4,-0.1 0.5,-0.1c0.2,0 0.4,0 0.6,-0.1c0.2,-0.1 0.1,-0.3 0.3,-0.5c0.1,-0.1 0.3,0 0.4,-0.1c0.2,-0.1 0.3,-0.3 0.4,-0.5c0,-0.1 0,-0.1 0,-0.2c0,-0.1 0.1,-0.2 0.1,-0.3c0,-0.1 -0.1,-0.1 -0.1,-0.2c0,-0.1 0,-0.2 0,-0.3c0,-0.2 0,-0.4 -0.1,-0.5c-0.4,-0.7 -1.2,-0.9 -2,-0.8c-0.2,0 -0.3,0.1 -0.4,0.2c-0.2,0.1 -0.1,0.2 -0.3,0.2c-0.1,0 -0.2,0.1 -0.2,0.2c0,0.2 0,0.2 0,0.3c0,0 0,0 0,0" fill="#FFFFFF"/>
      <path id="svg_35" d="m31.1,-56.3c0,0.1 0,0.1 0,0.2c-0.1,0.1 -0.1,0.1 -0.2,0.1c-0.1,0.1 -0.1,0.3 -0.1,0.4c-0.2,0.1 0,0.2 0,0.3c0,0 0,0.1 0,0.2c0,0.1 0,0.3 0.1,0.4c0.1,0.2 0.3,0.4 0.4,0.5c0.2,0.1 0.4,0.6 0.6,0.6c0.2,0 0.4,-0.1 0.5,-0.1c0.2,0 0.4,0 0.6,-0.1c0.2,-0.1 0.1,-0.3 0.3,-0.5c0.1,-0.1 0.3,0 0.4,-0.1c0.2,-0.1 0.3,-0.3 0.4,-0.5c0,-0.1 0,-0.1 0,-0.2c0,-0.1 0.1,-0.2 0.1,-0.3c0,-0.1 -0.1,-0.1 -0.1,-0.2c0,-0.1 0,-0.2 0,-0.3c0,-0.2 0,-0.4 -0.1,-0.5c-0.4,-0.7 -1.2,-0.9 -2,-0.8c-0.2,0 -0.3,0.1 -0.4,0.2c-0.2,0.1 -0.1,0.2 -0.3,0.2c-0.1,0 -0.2,0.1 -0.2,0.2c0,0.2 0,0.2 0,0.3c0,0 0,0 0,0" fill="#FFFFFF"/>
      <path id="svg_36" d="m23.5,-56.3c0,0.1 0,0.1 0,0.2c-0.1,0.1 -0.1,0.1 -0.2,0.1c-0.1,0.1 -0.1,0.3 -0.1,0.4c-0.2,0.1 0,0.2 0,0.3c0,0 0,0.1 0,0.2c0,0.1 0,0.3 0.1,0.4c0.1,0.2 0.3,0.4 0.4,0.5c0.2,0.1 0.4,0.6 0.6,0.6c0.2,0 0.4,-0.1 0.5,-0.1c0.2,0 0.4,0 0.6,-0.1c0.2,-0.1 0.1,-0.3 0.3,-0.5c0.1,-0.1 0.3,0 0.4,-0.1c0.2,-0.1 0.3,-0.3 0.4,-0.5c0,-0.1 0,-0.1 0,-0.2c0,-0.1 0.1,-0.2 0.1,-0.3c0,-0.1 -0.1,-0.1 -0.1,-0.2c0,-0.1 0,-0.2 0,-0.3c0,-0.2 0,-0.4 -0.1,-0.5c-0.4,-0.7 -1.2,-0.9 -2,-0.8c-0.2,0 -0.3,0.1 -0.4,0.2c-0.2,0.1 -0.1,0.2 -0.3,0.2c-0.1,0 -0.2,0.1 -0.2,0.2c0,0.2 0,0.2 0,0.3c0,0 0,0 0,0" fill="#FFFFFF"/>
      <path id="svg_37" d="m15.8,-56.3c0,0.1 0,0.1 0,0.2c-0.1,0.1 -0.1,0.1 -0.2,0.1c-0.1,0.1 -0.1,0.3 -0.1,0.4c-0.2,0.1 0,0.2 0,0.3c0,0 0,0.1 0,0.2c0,0.1 0,0.3 0.1,0.4c0.1,0.2 0.3,0.4 0.4,0.5c0.2,0.1 0.4,0.6 0.6,0.6c0.2,0 0.4,-0.1 0.5,-0.1c0.2,0 0.4,0 0.6,-0.1c0.2,-0.1 0.1,-0.3 0.3,-0.5c0.1,-0.1 0.3,0 0.4,-0.1c0.2,-0.1 0.3,-0.3 0.4,-0.5c0,-0.1 0,-0.1 0,-0.2c0,-0.1 0.1,-0.2 0.1,-0.3c0,-0.1 -0.1,-0.1 -0.1,-0.2c0,-0.1 0,-0.2 0,-0.3c0,-0.2 0,-0.4 -0.1,-0.5c-0.4,-0.7 -1.2,-0.9 -2,-0.8c-0.2,0 -0.3,0.1 -0.4,0.2c-0.2,0.1 -0.1,0.2 -0.3,0.2c-0.1,0 -0.2,0.1 -0.2,0.2c0,0.2 0,0.2 0,0.3c0,0 0,0 0,0" fill="#FFFFFF"/>
      <path id="svg_38" d="m8.2,-56.3c0,0.1 0,0.1 0,0.2c-0.1,0 -0.2,0 -0.2,0.1c-0.1,0.1 -0.1,0.3 -0.1,0.4c-0.2,0.1 0,0.2 0,0.3c0,0 0,0.1 0,0.2c0,0.1 0,0.3 0.1,0.4c0.1,0.2 0.3,0.4 0.4,0.5c0.2,0.1 0.4,0.6 0.6,0.6c0.2,0 0.4,-0.1 0.5,-0.1c0.2,0 0.4,0 0.6,-0.1c0.2,-0.1 0.1,-0.3 0.3,-0.5c0.1,-0.1 0.3,0 0.4,-0.1c0.2,-0.1 0.3,-0.3 0.4,-0.5c0,-0.1 0,-0.1 0,-0.2c0,-0.1 0.1,-0.2 0.1,-0.3c0,-0.1 -0.1,-0.1 -0.1,-0.2c0,-0.1 0,-0.2 0,-0.3c0,-0.2 0,-0.4 -0.1,-0.5c-0.4,-0.7 -1.2,-0.9 -2,-0.8c-0.2,0 -0.3,0.1 -0.4,0.2c-0.2,0.1 -0.1,0.2 -0.3,0.2c-0.1,0 -0.2,0.1 -0.2,0.2c0,0.2 0,0.2 0,0.3c-0.1,0 -0.1,0 0,0" fill="#FFFFFF"/>
      <path id="svg_39" d="m0.5,-56.3c0,0.1 0,0.1 0,0.2c-0.1,0.1 -0.1,0.1 -0.2,0.1c-0.1,0.1 -0.1,0.3 -0.1,0.4c-0.2,0.1 0,0.2 0,0.3c0,0 0,0.1 0,0.2c0,0.1 0,0.3 0.1,0.4c0.1,0.2 0.3,0.4 0.4,0.5c0.2,0.1 0.4,0.6 0.6,0.6c0.2,0 0.4,-0.1 0.5,-0.1c0.2,0 0.4,0 0.6,-0.1c0.2,-0.1 0.1,-0.3 0.3,-0.5c0.1,-0.1 0.3,0 0.4,-0.1c0.2,-0.1 0.3,-0.3 0.4,-0.5c0,-0.1 0,-0.1 0,-0.2c0,-0.1 0.1,-0.2 0.1,-0.3c0,-0.1 -0.1,-0.1 -0.1,-0.2c0,-0.1 0,-0.2 0,-0.3c0,-0.2 0,-0.4 -0.1,-0.5c-0.4,-0.7 -1.2,-0.9 -2,-0.8c-0.2,0 -0.3,0.1 -0.4,0.2c-0.2,0.1 -0.1,0.2 -0.3,0.2c-0.1,0 -0.2,0.1 -0.2,0.2c0,0.2 0,0.2 0,0.3c0,0 0,0 0,0" fill="#FFFFFF"/>
     </g>
     <g id="svg_40">
      <path id="svg_41" d="m69.4,-48.7c0,0.1 0,0.1 0,0.2c-0.1,0.1 -0.1,0.1 -0.2,0.1c-0.1,0.1 -0.1,0.3 -0.1,0.4c-0.2,0.1 0,0.2 0,0.3c0,0 0,0.1 0,0.2c0,0.1 0,0.3 0.1,0.4c0.1,0.2 0.3,0.4 0.4,0.5c0.2,0.1 0.4,0.6 0.6,0.6c0.2,0 0.4,-0.1 0.5,-0.1c0.2,0 0.4,0 0.6,-0.1c0.2,-0.1 0.1,-0.3 0.3,-0.5c0.1,-0.1 0.3,0 0.4,-0.1c0.2,-0.1 0.3,-0.3 0.4,-0.5c0,-0.1 0,-0.1 0,-0.2c0,-0.1 0.1,-0.2 0.1,-0.3c0,-0.1 -0.1,-0.1 -0.1,-0.2c0,-0.1 0,-0.2 0,-0.3c0,-0.2 0,-0.4 -0.1,-0.5c-0.4,-0.7 -1.2,-0.9 -2,-0.8c-0.2,0 -0.3,0.1 -0.4,0.2c-0.2,0.1 -0.1,0.2 -0.3,0.2c-0.1,0 -0.2,0.1 -0.2,0.2c0,0.3 0,0.2 0,0.3c0,0 0,0 0,0" fill="#FFFFFF"/>
      <path id="svg_42" d="m61.8,-48.7c0,0.1 0,0.1 0,0.2c-0.1,0.1 -0.1,0.1 -0.2,0.1c-0.1,0.1 -0.1,0.3 -0.1,0.4c-0.2,0.1 0,0.2 0,0.3c0,0 0,0.1 0,0.2c0,0.1 0,0.3 0.1,0.4c0.1,0.2 0.3,0.4 0.4,0.5c0.2,0.1 0.4,0.6 0.6,0.6c0.2,0 0.4,-0.1 0.5,-0.1c0.2,0 0.4,0 0.6,-0.1c0.2,-0.1 0.1,-0.3 0.3,-0.5c0.1,-0.1 0.3,0 0.4,-0.1c0.2,-0.1 0.3,-0.3 0.4,-0.5c0,-0.1 0,-0.1 0,-0.2c0,-0.1 0.1,-0.2 0.1,-0.3c0,-0.1 -0.1,-0.1 -0.1,-0.2c0,-0.1 0,-0.2 0,-0.3c0,-0.2 0,-0.4 -0.1,-0.5c-0.4,-0.7 -1.2,-0.9 -2,-0.8c-0.2,0 -0.3,0.1 -0.4,0.2c-0.2,0.1 -0.1,0.2 -0.3,0.2c-0.1,0 -0.2,0.1 -0.2,0.2c0,0.3 0,0.2 0,0.3c0,0 0,0 0,0" fill="#FFFFFF"/>
      <path id="svg_43" d="m54.1,-48.7c0,0.1 0,0.1 0,0.2c-0.1,0.1 -0.1,0.1 -0.2,0.1c-0.1,0.1 -0.1,0.3 -0.1,0.4c-0.2,0.1 0,0.2 0,0.3c0,0 0,0.1 0,0.2c0,0.1 0,0.3 0.1,0.4c0.1,0.2 0.3,0.4 0.4,0.5c0.2,0.1 0.4,0.6 0.6,0.6c0.2,0 0.4,-0.1 0.5,-0.1c0.2,0 0.4,0 0.6,-0.1c0.2,-0.1 0.1,-0.3 0.3,-0.5c0.1,-0.1 0.3,0 0.4,-0.1c0.2,-0.1 0.3,-0.3 0.4,-0.5c0,-0.1 0,-0.1 0,-0.2c0,-0.1 0.1,-0.2 0.1,-0.3c0,-0.1 -0.1,-0.1 -0.1,-0.2c0,-0.1 0,-0.2 0,-0.3c0,-0.2 0,-0.4 -0.1,-0.5c-0.4,-0.7 -1.2,-0.9 -2,-0.8c-0.2,0 -0.3,0.1 -0.4,0.2c-0.2,0.1 -0.1,0.2 -0.3,0.2c-0.1,0 -0.2,0.1 -0.2,0.2c0,0.3 0,0.2 0,0.3c0,0 0,0 0,0" fill="#FFFFFF"/>
      <path id="svg_44" d="m46.5,-48.7c0,0.1 0,0.1 0,0.2c-0.1,0.1 -0.1,0.1 -0.2,0.1c-0.1,0.1 -0.1,0.3 -0.1,0.4c-0.2,0.1 0,0.2 0,0.3c0,0 0,0.1 0,0.2c0,0.1 0,0.3 0.1,0.4c0.1,0.2 0.3,0.4 0.4,0.5c0.2,0.1 0.4,0.6 0.6,0.6c0.2,0 0.4,-0.1 0.5,-0.1c0.2,0 0.4,0 0.6,-0.1c0.2,-0.1 0.1,-0.3 0.3,-0.5c0.1,-0.1 0.3,0 0.4,-0.1c0.2,-0.1 0.3,-0.3 0.4,-0.5c0,-0.1 0,-0.1 0,-0.2c0,-0.1 0.1,-0.2 0.1,-0.3c0,-0.1 -0.1,-0.1 -0.1,-0.2c0,-0.1 0,-0.2 0,-0.3c0,-0.2 0,-0.4 -0.1,-0.5c-0.4,-0.7 -1.2,-0.9 -2,-0.8c-0.2,0 -0.3,0.1 -0.4,0.2c-0.2,0.1 -0.1,0.2 -0.3,0.2c-0.1,0 -0.2,0.1 -0.2,0.2c0,0.3 0,0.2 0,0.3c0,0 0,0 0,0" fill="#FFFFFF"/>
      <path id="svg_45" d="m38.8,-48.7c0,0.1 0,0.1 0,0.2c-0.1,0.1 -0.1,0.1 -0.2,0.1c-0.1,0.1 -0.1,0.3 -0.1,0.4c-0.2,0.1 0,0.2 0,0.3c0,0 0,0.1 0,0.2c0,0.1 0,0.3 0.1,0.4c0.1,0.2 0.3,0.4 0.4,0.5c0.2,0.1 0.4,0.6 0.6,0.6c0.2,0 0.4,-0.1 0.5,-0.1c0.2,0 0.4,0 0.6,-0.1c0.2,-0.1 0.1,-0.3 0.3,-0.5c0.1,-0.1 0.3,0 0.4,-0.1c0.2,-0.1 0.3,-0.3 0.4,-0.5c0,-0.1 0,-0.1 0,-0.2c0,-0.1 0.1,-0.2 0.1,-0.3c0,-0.1 -0.1,-0.1 -0.1,-0.2c0,-0.1 0,-0.2 0,-0.3c0,-0.2 0,-0.4 -0.1,-0.5c-0.4,-0.7 -1.2,-0.9 -2,-0.8c-0.2,0 -0.3,0.1 -0.4,0.2c-0.2,0.1 -0.1,0.2 -0.3,0.2c-0.1,0 -0.2,0.1 -0.2,0.2c0,0.3 0,0.2 0,0.3c0,0 0,0 0,0" fill="#FFFFFF"/>
      <path id="svg_46" d="m31.1,-48.7c0,0.1 0,0.1 0,0.2c-0.1,0.1 -0.1,0.1 -0.2,0.1c-0.1,0.1 -0.1,0.3 -0.1,0.4c-0.2,0.1 0,0.2 0,0.3c0,0 0,0.1 0,0.2c0,0.1 0,0.3 0.1,0.4c0.1,0.2 0.3,0.4 0.4,0.5c0.2,0.1 0.4,0.6 0.6,0.6c0.2,0 0.4,-0.1 0.5,-0.1c0.2,0 0.4,0 0.6,-0.1c0.2,-0.1 0.1,-0.3 0.3,-0.5c0.1,-0.1 0.3,0 0.4,-0.1c0.2,-0.1 0.3,-0.3 0.4,-0.5c0,-0.1 0,-0.1 0,-0.2c0,-0.1 0.1,-0.2 0.1,-0.3c0,-0.1 -0.1,-0.1 -0.1,-0.2c0,-0.1 0,-0.2 0,-0.3c0,-0.2 0,-0.4 -0.1,-0.5c-0.4,-0.7 -1.2,-0.9 -2,-0.8c-0.2,0 -0.3,0.1 -0.4,0.2c-0.2,0.1 -0.1,0.2 -0.3,0.2c-0.1,0 -0.2,0.1 -0.2,0.2c0,0.3 0,0.2 0,0.3c0,0 0,0 0,0" fill="#FFFFFF"/>
      <path id="svg_47" d="m23.5,-48.7c0,0.1 0,0.1 0,0.2c-0.1,0.1 -0.1,0.1 -0.2,0.1c-0.1,0.1 -0.1,0.3 -0.1,0.4c-0.2,0.1 0,0.2 0,0.3c0,0 0,0.1 0,0.2c0,0.1 0,0.3 0.1,0.4c0.1,0.2 0.3,0.4 0.4,0.5c0.2,0.1 0.4,0.6 0.6,0.6c0.2,0 0.4,-0.1 0.5,-0.1c0.2,0 0.4,0 0.6,-0.1c0.2,-0.1 0.1,-0.3 0.3,-0.5c0.1,-0.1 0.3,0 0.4,-0.1c0.2,-0.1 0.3,-0.3 0.4,-0.5c0,-0.1 0,-0.1 0,-0.2c0,-0.1 0.1,-0.2 0.1,-0.3c0,-0.1 -0.1,-0.1 -0.1,-0.2c0,-0.1 0,-0.2 0,-0.3c0,-0.2 0,-0.4 -0.1,-0.5c-0.4,-0.7 -1.2,-0.9 -2,-0.8c-0.2,0 -0.3,0.1 -0.4,0.2c-0.2,0.1 -0.1,0.2 -0.3,0.2c-0.1,0 -0.2,0.1 -0.2,0.2c0,0.3 0,0.2 0,0.3c0,0 0,0 0,0" fill="#FFFFFF"/>
      <path id="svg_48" d="m15.8,-48.7c0,0.1 0,0.1 0,0.2c-0.1,0.1 -0.1,0.1 -0.2,0.1c-0.1,0.1 -0.1,0.3 -0.1,0.4c-0.2,0.1 0,0.2 0,0.3c0,0 0,0.1 0,0.2c0,0.1 0,0.3 0.1,0.4c0.1,0.2 0.3,0.4 0.4,0.5c0.2,0.1 0.4,0.6 0.6,0.6c0.2,0 0.4,-0.1 0.5,-0.1c0.2,0 0.4,0 0.6,-0.1c0.2,-0.1 0.1,-0.3 0.3,-0.5c0.1,-0.1 0.3,0 0.4,-0.1c0.2,-0.1 0.3,-0.3 0.4,-0.5c0,-0.1 0,-0.1 0,-0.2c0,-0.1 0.1,-0.2 0.1,-0.3c0,-0.1 -0.1,-0.1 -0.1,-0.2c0,-0.1 0,-0.2 0,-0.3c0,-0.2 0,-0.4 -0.1,-0.5c-0.4,-0.7 -1.2,-0.9 -2,-0.8c-0.2,0 -0.3,0.1 -0.4,0.2c-0.2,0.1 -0.1,0.2 -0.3,0.2c-0.1,0 -0.2,0.1 -0.2,0.2c0,0.3 0,0.2 0,0.3c0,0 0,0 0,0" fill="#FFFFFF"/>
      <path id="svg_49" d="m8.2,-48.7c0,0.1 0,0.1 0,0.2c-0.1,0.1 -0.2,0.1 -0.2,0.1c-0.1,0.1 -0.1,0.3 -0.1,0.4c-0.2,0.1 0,0.2 0,0.3c0,0 0,0.1 0,0.2c0,0.1 0,0.3 0.1,0.4c0.1,0.2 0.3,0.4 0.4,0.5c0.1,0.2 0.3,0.6 0.5,0.6c0.2,0 0.4,-0.1 0.5,-0.1c0.2,0 0.4,0 0.6,-0.1c0.2,-0.1 0.1,-0.3 0.3,-0.5c0.1,-0.1 0.3,0 0.4,-0.1c0.2,-0.1 0.3,-0.3 0.4,-0.5c0,-0.1 0,-0.1 0,-0.2c0,-0.1 0.1,-0.2 0.1,-0.3c0,-0.1 -0.1,-0.1 -0.1,-0.2c0,-0.1 0,-0.2 0,-0.3c0,-0.2 0,-0.4 -0.1,-0.5c-0.4,-0.7 -1.2,-0.9 -2,-0.8c-0.2,0 -0.3,0.1 -0.4,0.2c-0.2,0.1 -0.1,0.2 -0.3,0.2c-0.1,0 -0.2,0.1 -0.2,0.2c0.1,0.3 0.1,0.2 0.1,0.3c-0.1,0 -0.1,0 0,0" fill="#FFFFFF"/>
      <path id="svg_50" d="m0.5,-48.7c0,0.1 0,0.1 0,0.2c-0.1,0.1 -0.1,0.1 -0.2,0.1c-0.1,0.1 -0.1,0.3 -0.1,0.4c-0.2,0.1 0,0.2 0,0.3c0,0 0,0.1 0,0.2c0,0.1 0,0.3 0.1,0.4c0.1,0.2 0.3,0.4 0.4,0.5c0.2,0.2 0.3,0.6 0.6,0.6c0.2,0 0.4,-0.1 0.5,-0.1c0.2,0 0.4,0 0.6,-0.1c0.2,-0.1 0.1,-0.3 0.3,-0.5c0.1,-0.1 0.3,0 0.4,-0.1c0.2,-0.1 0.3,-0.3 0.4,-0.5c0,-0.1 0,-0.1 0,-0.2c0,-0.1 0.1,-0.2 0.1,-0.3c0,-0.1 -0.1,-0.1 -0.1,-0.2c0,-0.1 0,-0.2 0,-0.3c0,-0.2 0,-0.4 -0.1,-0.5c-0.4,-0.7 -1.2,-0.9 -2,-0.8c-0.2,0 -0.3,0.1 -0.4,0.2c-0.2,0.1 -0.1,0.2 -0.3,0.2c-0.1,0 -0.2,0.1 -0.2,0.2c0,0.3 0,0.2 0,0.3c0,0 0,0 0,0" fill="#FFFFFF"/>
     </g>
     <g id="svg_51">
      <path id="svg_52" d="m69.4,-41c0,0.1 0,0.1 0,0.2c-0.1,0.1 -0.1,0.1 -0.2,0.1c-0.1,0.1 -0.1,0.3 -0.1,0.4c-0.2,0.1 0,0.2 0,0.3c0,0 0,0.1 0,0.2c0,0.1 0,0.3 0.1,0.4c0.1,0.2 0.3,0.4 0.4,0.5c0.2,0.1 0.4,0.6 0.6,0.6c0.2,0 0.4,-0.1 0.5,-0.1c0.2,0 0.4,0 0.6,-0.1c0.2,-0.1 0.1,-0.3 0.3,-0.5c0.1,-0.1 0.3,0 0.4,-0.1c0.2,-0.1 0.3,-0.3 0.4,-0.5c0,-0.1 0,-0.1 0,-0.2c0,-0.1 0.1,-0.2 0.1,-0.3c0,-0.1 -0.1,-0.1 -0.1,-0.2c0,-0.1 0,-0.2 0,-0.3c0,-0.2 0,-0.4 -0.1,-0.5c-0.4,-0.7 -1.2,-0.9 -2,-0.8c-0.2,0 -0.3,0.1 -0.4,0.2c-0.2,0.1 -0.1,0.2 -0.3,0.2c-0.1,0 -0.2,0.1 -0.2,0.2c0,0.2 0,0.2 0,0.3c0,0 0,0 0,0" fill="#FFFFFF"/>
      <path id="svg_53" d="m61.8,-41c0,0.1 0,0.1 0,0.2c-0.1,0.1 -0.1,0.1 -0.2,0.1c-0.1,0.1 -0.1,0.3 -0.1,0.4c-0.2,0.1 0,0.2 0,0.3c0,0 0,0.1 0,0.2c0,0.1 0,0.3 0.1,0.4c0.1,0.2 0.3,0.4 0.4,0.5c0.2,0.1 0.4,0.6 0.6,0.6c0.2,0 0.4,-0.1 0.5,-0.1c0.2,0 0.4,0 0.6,-0.1c0.2,-0.1 0.1,-0.3 0.3,-0.5c0.1,-0.1 0.3,0 0.4,-0.1c0.2,-0.1 0.3,-0.3 0.4,-0.5c0,-0.1 0,-0.1 0,-0.2c0,-0.1 0.1,-0.2 0.1,-0.3c0,-0.1 -0.1,-0.1 -0.1,-0.2c0,-0.1 0,-0.2 0,-0.3c0,-0.2 0,-0.4 -0.1,-0.5c-0.4,-0.7 -1.2,-0.9 -2,-0.8c-0.2,0 -0.3,0.1 -0.4,0.2c-0.2,0.1 -0.1,0.2 -0.3,0.2c-0.1,0 -0.2,0.1 -0.2,0.2c0,0.2 0,0.2 0,0.3c0,0 0,0 0,0" fill="#FFFFFF"/>
      <path id="svg_54" d="m54.1,-41c0,0.1 0,0.1 0,0.2c-0.1,0.1 -0.1,0.1 -0.2,0.1c-0.1,0.1 -0.1,0.3 -0.1,0.4c-0.2,0.1 0,0.2 0,0.3c0,0 0,0.1 0,0.2c0,0.1 0,0.3 0.1,0.4c0.1,0.2 0.3,0.4 0.4,0.5c0.2,0.1 0.4,0.6 0.6,0.6c0.2,0 0.4,-0.1 0.5,-0.1c0.2,0 0.4,0 0.6,-0.1c0.2,-0.1 0.1,-0.3 0.3,-0.5c0.1,-0.1 0.3,0 0.4,-0.1c0.2,-0.1 0.3,-0.3 0.4,-0.5c0,-0.1 0,-0.1 0,-0.2c0,-0.1 0.1,-0.2 0.1,-0.3c0,-0.1 -0.1,-0.1 -0.1,-0.2c0,-0.1 0,-0.2 0,-0.3c0,-0.2 0,-0.4 -0.1,-0.5c-0.4,-0.7 -1.2,-0.9 -2,-0.8c-0.2,0 -0.3,0.1 -0.4,0.2c-0.2,0.1 -0.1,0.2 -0.3,0.2c-0.1,0 -0.2,0.1 -0.2,0.2c0,0.2 0,0.2 0,0.3c0,0 0,0 0,0" fill="#FFFFFF"/>
      <path id="svg_55" d="m46.5,-41c0,0.1 0,0.1 0,0.2c-0.1,0.1 -0.1,0.1 -0.2,0.1c-0.1,0.1 -0.1,0.3 -0.1,0.4c-0.2,0.1 0,0.2 0,0.3c0,0 0,0.1 0,0.2c0,0.1 0,0.3 0.1,0.4c0.1,0.2 0.3,0.4 0.4,0.5c0.2,0.1 0.4,0.6 0.6,0.6c0.2,0 0.4,-0.1 0.5,-0.1c0.2,0 0.4,0 0.6,-0.1c0.2,-0.1 0.1,-0.3 0.3,-0.5c0.1,-0.1 0.3,0 0.4,-0.1c0.2,-0.1 0.3,-0.3 0.4,-0.5c0,-0.1 0,-0.1 0,-0.2c0,-0.1 0.1,-0.2 0.1,-0.3c0,-0.1 -0.1,-0.1 -0.1,-0.2c0,-0.1 0,-0.2 0,-0.3c0,-0.2 0,-0.4 -0.1,-0.5c-0.4,-0.7 -1.2,-0.9 -2,-0.8c-0.2,0 -0.3,0.1 -0.4,0.2c-0.2,0.1 -0.1,0.2 -0.3,0.2c-0.1,0 -0.2,0.1 -0.2,0.2c0,0.2 0,0.2 0,0.3c0,0 0,0 0,0" fill="#FFFFFF"/>
      <path id="svg_56" d="m38.8,-41c0,0.1 0,0.1 0,0.2c-0.1,0.1 -0.1,0.1 -0.2,0.1c-0.1,0.1 -0.1,0.3 -0.1,0.4c-0.2,0.1 0,0.2 0,0.3c0,0 0,0.1 0,0.2c0,0.1 0,0.3 0.1,0.4c0.1,0.2 0.3,0.4 0.4,0.5c0.2,0.1 0.4,0.6 0.6,0.6c0.2,0 0.4,-0.1 0.5,-0.1c0.2,0 0.4,0 0.6,-0.1c0.2,-0.1 0.1,-0.3 0.3,-0.5c0.1,-0.1 0.3,0 0.4,-0.1c0.2,-0.1 0.3,-0.3 0.4,-0.5c0,-0.1 0,-0.1 0,-0.2c0,-0.1 0.1,-0.2 0.1,-0.3c0,-0.1 -0.1,-0.1 -0.1,-0.2c0,-0.1 0,-0.2 0,-0.3c0,-0.2 0,-0.4 -0.1,-0.5c-0.4,-0.7 -1.2,-0.9 -2,-0.8c-0.2,0 -0.3,0.1 -0.4,0.2c-0.2,0.1 -0.1,0.2 -0.3,0.2c-0.1,0 -0.2,0.1 -0.2,0.2c0,0.2 0,0.2 0,0.3c0,0 0,0 0,0" fill="#FFFFFF"/>
      <path id="svg_57" d="m31.1,-41c0,0.1 0,0.1 0,0.2c-0.1,0.1 -0.1,0.1 -0.2,0.1c-0.1,0.1 -0.1,0.3 -0.1,0.4c-0.2,0.1 0,0.2 0,0.3c0,0 0,0.1 0,0.2c0,0.1 0,0.3 0.1,0.4c0.1,0.2 0.3,0.4 0.4,0.5c0.2,0.1 0.4,0.6 0.6,0.6c0.2,0 0.4,-0.1 0.5,-0.1c0.2,0 0.4,0 0.6,-0.1c0.2,-0.1 0.1,-0.3 0.3,-0.5c0.1,-0.1 0.3,0 0.4,-0.1c0.2,-0.1 0.3,-0.3 0.4,-0.5c0,-0.1 0,-0.1 0,-0.2c0,-0.1 0.1,-0.2 0.1,-0.3c0,-0.1 -0.1,-0.1 -0.1,-0.2c0,-0.1 0,-0.2 0,-0.3c0,-0.2 0,-0.4 -0.1,-0.5c-0.4,-0.7 -1.2,-0.9 -2,-0.8c-0.2,0 -0.3,0.1 -0.4,0.2c-0.2,0.1 -0.1,0.2 -0.3,0.2c-0.1,0 -0.2,0.1 -0.2,0.2c0,0.2 0,0.2 0,0.3c0,0 0,0 0,0" fill="#FFFFFF"/>
      <path id="svg_58" d="m23.5,-41c0,0.1 0,0.1 0,0.2c-0.1,0.1 -0.1,0.1 -0.2,0.1c-0.1,0.1 -0.1,0.3 -0.1,0.4c-0.2,0.1 0,0.2 0,0.3c0,0 0,0.1 0,0.2c0,0.1 0,0.3 0.1,0.4c0.1,0.2 0.3,0.4 0.4,0.5c0.2,0.1 0.4,0.6 0.6,0.6c0.2,0 0.4,-0.1 0.5,-0.1c0.2,0 0.4,0 0.6,-0.1c0.2,-0.1 0.1,-0.3 0.3,-0.5c0.1,-0.1 0.3,0 0.4,-0.1c0.2,-0.1 0.3,-0.3 0.4,-0.5c0,-0.1 0,-0.1 0,-0.2c0,-0.1 0.1,-0.2 0.1,-0.3c0,-0.1 -0.1,-0.1 -0.1,-0.2c0,-0.1 0,-0.2 0,-0.3c0,-0.2 0,-0.4 -0.1,-0.5c-0.4,-0.7 -1.2,-0.9 -2,-0.8c-0.2,0 -0.3,0.1 -0.4,0.2c-0.2,0.1 -0.1,0.2 -0.3,0.2c-0.1,0 -0.2,0.1 -0.2,0.2c0,0.2 0,0.2 0,0.3c0,0 0,0 0,0" fill="#FFFFFF"/>
      <path id="svg_59" d="m15.8,-41c0,0.1 0,0.1 0,0.2c-0.1,0.1 -0.1,0.1 -0.2,0.1c-0.1,0.1 -0.1,0.3 -0.1,0.4c-0.2,0.1 0,0.2 0,0.3c0,0 0,0.1 0,0.2c0,0.1 0,0.3 0.1,0.4c0.1,0.2 0.3,0.4 0.4,0.5c0.2,0.1 0.4,0.6 0.6,0.6c0.2,0 0.4,-0.1 0.5,-0.1c0.2,0 0.4,0 0.6,-0.1c0.2,-0.1 0.1,-0.3 0.3,-0.5c0.1,-0.1 0.3,0 0.4,-0.1c0.2,-0.1 0.3,-0.3 0.4,-0.5c0,-0.1 0,-0.1 0,-0.2c0,-0.1 0.1,-0.2 0.1,-0.3c0,-0.1 -0.1,-0.1 -0.1,-0.2c0,-0.1 0,-0.2 0,-0.3c0,-0.2 0,-0.4 -0.1,-0.5c-0.4,-0.7 -1.2,-0.9 -2,-0.8c-0.2,0 -0.3,0.1 -0.4,0.2c-0.2,0.1 -0.1,0.2 -0.3,0.2c-0.1,0 -0.2,0.1 -0.2,0.2c0,0.2 0,0.2 0,0.3c0,0 0,0 0,0" fill="#FFFFFF"/>
      <path id="svg_60" d="m8.2,-41c0,0.1 0,0.1 0,0.2c-0.1,0 -0.2,0 -0.2,0.1c-0.1,0.1 -0.1,0.3 -0.1,0.4c-0.2,0.1 0,0.2 0,0.3c0,0 0,0.1 0,0.2c0,0.1 0,0.3 0.1,0.4c0.1,0.2 0.3,0.4 0.4,0.5c0.2,0.1 0.4,0.6 0.6,0.6c0.2,0 0.4,-0.1 0.5,-0.1c0.2,0 0.4,0 0.6,-0.1c0.2,-0.1 0.1,-0.3 0.3,-0.5c0.1,-0.1 0.3,0 0.4,-0.1c0.2,-0.1 0.3,-0.3 0.4,-0.5c0,-0.1 0,-0.1 0,-0.2c0,-0.1 0.1,-0.2 0.1,-0.3c0,-0.1 -0.1,-0.1 -0.1,-0.2c0,-0.1 0,-0.2 0,-0.3c0,-0.2 0,-0.4 -0.1,-0.5c-0.4,-0.7 -1.2,-0.9 -2,-0.8c-0.2,0 -0.3,0.1 -0.4,0.2c-0.2,0.1 -0.1,0.2 -0.3,0.2c-0.1,0 -0.2,0.1 -0.2,0.2c0,0.2 0,0.2 0,0.3c-0.1,0 -0.1,0 0,0" fill="#FFFFFF"/>
      <path id="svg_61" d="m0.5,-41c0,0.1 0,0.1 0,0.2c-0.1,0.1 -0.1,0.1 -0.2,0.1c-0.1,0.1 -0.1,0.3 -0.1,0.4c-0.2,0.1 0,0.2 0,0.3c0,0 0,0.1 0,0.2c0,0.1 0,0.3 0.1,0.4c0.1,0.2 0.3,0.4 0.4,0.5c0.2,0.1 0.4,0.6 0.6,0.6c0.2,0 0.4,-0.1 0.5,-0.1c0.2,0 0.4,0 0.6,-0.1c0.2,-0.1 0.1,-0.3 0.3,-0.5c0.1,0 0.3,0 0.4,0c0.2,-0.1 0.3,-0.3 0.4,-0.5c0,-0.1 0,-0.1 0,-0.2c0,-0.1 0.1,-0.2 0.1,-0.3c0,-0.1 -0.1,-0.1 -0.1,-0.2c0,-0.1 0,-0.2 0,-0.3c0,-0.2 0,-0.4 -0.1,-0.5c-0.4,-0.7 -1.2,-0.9 -2,-0.8c-0.2,0 -0.3,0.1 -0.4,0.2c-0.2,0.1 -0.1,0.2 -0.3,0.2c-0.1,0 -0.2,0.1 -0.2,0.2c0,0.1 0,0.1 0,0.2c0,0 0,0 0,0" fill="#FFFFFF"/>
     </g>
     <g id="svg_62">
      <path id="svg_63" d="m69.4,-33.4c0,0.1 0,0.1 0,0.2c-0.1,0.1 -0.1,0.1 -0.2,0.1c-0.1,0.1 -0.1,0.3 -0.1,0.4c-0.2,0.1 0,0.2 0,0.3c0,0 0,0.1 0,0.2c0,0.1 0,0.3 0.1,0.4c0.1,0.2 0.3,0.4 0.4,0.5c0.2,0.1 0.4,0.6 0.6,0.6c0.2,0 0.4,-0.1 0.5,-0.1c0.2,0 0.4,0 0.6,-0.1c0.2,-0.1 0.1,-0.3 0.3,-0.5c0.1,-0.1 0.3,0 0.4,-0.1c0.2,-0.1 0.3,-0.3 0.4,-0.5c0,-0.1 0,-0.1 0,-0.2c0,-0.1 0.1,-0.2 0.1,-0.3c0,-0.1 -0.1,-0.1 -0.1,-0.2c0,-0.1 0,-0.2 0,-0.3c0,-0.2 0,-0.4 -0.1,-0.5c-0.4,-0.7 -1.2,-0.9 -2,-0.8c-0.2,0 -0.3,0.1 -0.4,0.2c-0.2,0.1 -0.1,0.2 -0.3,0.2c-0.1,0 -0.2,0.1 -0.2,0.2c0,0.3 0,0.2 0,0.3c0,0 0,0 0,0" fill="#FFFFFF"/>
      <path id="svg_64" d="m61.8,-33.4c0,0.1 0,0.1 0,0.2c-0.1,0.1 -0.1,0.1 -0.2,0.1c-0.1,0.1 -0.1,0.3 -0.1,0.4c-0.2,0.1 0,0.2 0,0.3c0,0 0,0.1 0,0.2c0,0.1 0,0.3 0.1,0.4c0.1,0.2 0.3,0.4 0.4,0.5c0.2,0.1 0.4,0.6 0.6,0.6c0.2,0 0.4,-0.1 0.5,-0.1c0.2,0 0.4,0 0.6,-0.1c0.2,-0.1 0.1,-0.3 0.3,-0.5c0.1,-0.1 0.3,0 0.4,-0.1c0.2,-0.1 0.3,-0.3 0.4,-0.5c0,-0.1 0,-0.1 0,-0.2c0,-0.1 0.1,-0.2 0.1,-0.3c0,-0.1 -0.1,-0.1 -0.1,-0.2c0,-0.1 0,-0.2 0,-0.3c0,-0.2 0,-0.4 -0.1,-0.5c-0.4,-0.7 -1.2,-0.9 -2,-0.8c-0.2,0 -0.3,0.1 -0.4,0.2c-0.2,0.1 -0.1,0.2 -0.3,0.2c-0.1,0 -0.2,0.1 -0.2,0.2c0,0.3 0,0.2 0,0.3c0,0 0,0 0,0" fill="#FFFFFF"/>
      <path id="svg_65" d="m54.1,-33.4c0,0.1 0,0.1 0,0.2c-0.1,0.1 -0.1,0.1 -0.2,0.1c-0.1,0.1 -0.1,0.3 -0.1,0.4c-0.2,0.1 0,0.2 0,0.3c0,0 0,0.1 0,0.2c0,0.1 0,0.3 0.1,0.4c0.1,0.2 0.3,0.4 0.4,0.5c0.2,0.1 0.4,0.6 0.6,0.6c0.2,0 0.4,-0.1 0.5,-0.1c0.2,0 0.4,0 0.6,-0.1c0.2,-0.1 0.1,-0.3 0.3,-0.5c0.1,-0.1 0.3,0 0.4,-0.1c0.2,-0.1 0.3,-0.3 0.4,-0.5c0,-0.1 0,-0.1 0,-0.2c0,-0.1 0.1,-0.2 0.1,-0.3c0,-0.1 -0.1,-0.1 -0.1,-0.2c0,-0.1 0,-0.2 0,-0.3c0,-0.2 0,-0.4 -0.1,-0.5c-0.4,-0.7 -1.2,-0.9 -2,-0.8c-0.2,0 -0.3,0.1 -0.4,0.2c-0.2,0.1 -0.1,0.2 -0.3,0.2c-0.1,0 -0.2,0.1 -0.2,0.2c0,0.3 0,0.2 0,0.3c0,0 0,0 0,0" fill="#FFFFFF"/>
      <path id="svg_66" d="m46.5,-33.4c0,0.1 0,0.1 0,0.2c-0.1,0.1 -0.1,0.1 -0.2,0.1c-0.1,0.1 -0.1,0.3 -0.1,0.4c-0.2,0.1 0,0.2 0,0.3c0,0 0,0.1 0,0.2c0,0.1 0,0.3 0.1,0.4c0.1,0.2 0.3,0.4 0.4,0.5c0.2,0.1 0.4,0.6 0.6,0.6c0.2,0 0.4,-0.1 0.5,-0.1c0.2,0 0.4,0 0.6,-0.1c0.2,-0.1 0.1,-0.3 0.3,-0.5c0.1,-0.1 0.3,0 0.4,-0.1c0.2,-0.1 0.3,-0.3 0.4,-0.5c0,-0.1 0,-0.1 0,-0.2c0,-0.1 0.1,-0.2 0.1,-0.3c0,-0.1 -0.1,-0.1 -0.1,-0.2c0,-0.1 0,-0.2 0,-0.3c0,-0.2 0,-0.4 -0.1,-0.5c-0.4,-0.7 -1.2,-0.9 -2,-0.8c-0.2,0 -0.3,0.1 -0.4,0.2c-0.2,0.1 -0.1,0.2 -0.3,0.2c-0.1,0 -0.2,0.1 -0.2,0.2c0,0.3 0,0.2 0,0.3c0,0 0,0 0,0" fill="#FFFFFF"/>
      <path id="svg_67" d="m38.8,-33.4c0,0.1 0,0.1 0,0.2c-0.1,0.1 -0.1,0.1 -0.2,0.1c-0.1,0.1 -0.1,0.3 -0.1,0.4c-0.2,0.1 0,0.2 0,0.3c0,0 0,0.1 0,0.2c0,0.1 0,0.3 0.1,0.4c0.1,0.2 0.3,0.4 0.4,0.5c0.2,0.1 0.4,0.6 0.6,0.6c0.2,0 0.4,-0.1 0.5,-0.1c0.2,0 0.4,0 0.6,-0.1c0.2,-0.1 0.1,-0.3 0.3,-0.5c0.1,-0.1 0.3,0 0.4,-0.1c0.2,-0.1 0.3,-0.3 0.4,-0.5c0,-0.1 0,-0.1 0,-0.2c0,-0.1 0.1,-0.2 0.1,-0.3c0,-0.1 -0.1,-0.1 -0.1,-0.2c0,-0.1 0,-0.2 0,-0.3c0,-0.2 0,-0.4 -0.1,-0.5c-0.4,-0.7 -1.2,-0.9 -2,-0.8c-0.2,0 -0.3,0.1 -0.4,0.2c-0.2,0.1 -0.1,0.2 -0.3,0.2c-0.1,0 -0.2,0.1 -0.2,0.2c0,0.3 0,0.2 0,0.3c0,0 0,0 0,0" fill="#FFFFFF"/>
      <path id="svg_68" d="m31.1,-33.4c0,0.1 0,0.1 0,0.2c-0.1,0.1 -0.1,0.1 -0.2,0.1c-0.1,0.1 -0.1,0.3 -0.1,0.4c-0.2,0.1 0,0.2 0,0.3c0,0 0,0.1 0,0.2c0,0.1 0,0.3 0.1,0.4c0.1,0.2 0.3,0.4 0.4,0.5c0.2,0.1 0.4,0.6 0.6,0.6c0.2,0 0.4,-0.1 0.5,-0.1c0.2,0 0.4,0 0.6,-0.1c0.2,-0.1 0.1,-0.3 0.3,-0.5c0.1,-0.1 0.3,0 0.4,-0.1c0.2,-0.1 0.3,-0.3 0.4,-0.5c0,-0.1 0,-0.1 0,-0.2c0,-0.1 0.1,-0.2 0.1,-0.3c0,-0.1 -0.1,-0.1 -0.1,-0.2c0,-0.1 0,-0.2 0,-0.3c0,-0.2 0,-0.4 -0.1,-0.5c-0.4,-0.7 -1.2,-0.9 -2,-0.8c-0.2,0 -0.3,0.1 -0.4,0.2c-0.2,0.1 -0.1,0.2 -0.3,0.2c-0.1,0 -0.2,0.1 -0.2,0.2c0,0.3 0,0.2 0,0.3c0,0 0,0 0,0" fill="#FFFFFF"/>
      <path id="svg_69" d="m23.5,-33.4c0,0.1 0,0.1 0,0.2c-0.1,0.1 -0.1,0.1 -0.2,0.1c-0.1,0.1 -0.1,0.3 -0.1,0.4c-0.2,0.1 0,0.2 0,0.3c0,0 0,0.1 0,0.2c0,0.1 0,0.3 0.1,0.4c0.1,0.2 0.3,0.4 0.4,0.5c0.2,0.1 0.4,0.6 0.6,0.6c0.2,0 0.4,-0.1 0.5,-0.1c0.2,0 0.4,0 0.6,-0.1c0.2,-0.1 0.1,-0.3 0.3,-0.5c0.1,-0.1 0.3,0 0.4,-0.1c0.2,-0.1 0.3,-0.3 0.4,-0.5c0,-0.1 0,-0.1 0,-0.2c0,-0.1 0.1,-0.2 0.1,-0.3c0,-0.1 -0.1,-0.1 -0.1,-0.2c0,-0.1 0,-0.2 0,-0.3c0,-0.2 0,-0.4 -0.1,-0.5c-0.4,-0.7 -1.2,-0.9 -2,-0.8c-0.2,0 -0.3,0.1 -0.4,0.2c-0.2,0.1 -0.1,0.2 -0.3,0.2c-0.1,0 -0.2,0.1 -0.2,0.2c0,0.3 0,0.2 0,0.3c0,0 0,0 0,0" fill="#FFFFFF"/>
      <path id="svg_70" d="m15.8,-33.4c0,0.1 0,0.1 0,0.2c-0.1,0.1 -0.1,0.1 -0.2,0.1c-0.1,0.1 -0.1,0.3 -0.1,0.4c-0.2,0.1 0,0.2 0,0.3c0,0 0,0.1 0,0.2c0,0.1 0,0.3 0.1,0.4c0.1,0.2 0.3,0.4 0.4,0.5c0.2,0.1 0.4,0.6 0.6,0.6c0.2,0 0.4,-0.1 0.5,-0.1c0.2,0 0.4,0 0.6,-0.1c0.2,-0.1 0.1,-0.3 0.3,-0.5c0.1,-0.1 0.3,0 0.4,-0.1c0.2,-0.1 0.3,-0.3 0.4,-0.5c0,-0.1 0,-0.1 0,-0.2c0,-0.1 0.1,-0.2 0.1,-0.3c0,-0.1 -0.1,-0.1 -0.1,-0.2c0,-0.1 0,-0.2 0,-0.3c0,-0.2 0,-0.4 -0.1,-0.5c-0.4,-0.7 -1.2,-0.9 -2,-0.8c-0.2,0 -0.3,0.1 -0.4,0.2c-0.2,0.1 -0.1,0.2 -0.3,0.2c-0.1,0 -0.2,0.1 -0.2,0.2c0,0.3 0,0.2 0,0.3c0,0 0,0 0,0" fill="#FFFFFF"/>
      <path id="svg_71" d="m8.2,-33.4c0,0.1 0,0.1 0,0.2c-0.1,0.1 -0.2,0.1 -0.2,0.1c-0.1,0.1 -0.1,0.3 -0.1,0.4c-0.2,0.1 0,0.2 0,0.3c0,0 0,0.1 0,0.2c0,0.1 0,0.3 0.1,0.4c0.1,0.2 0.3,0.4 0.4,0.5c0.2,0.1 0.4,0.6 0.6,0.6c0.2,0 0.4,-0.1 0.5,-0.1c0.2,0 0.4,0 0.6,-0.1c0.2,-0.1 0.1,-0.3 0.3,-0.5c0.1,-0.1 0.3,0 0.4,-0.1c0.2,-0.1 0.3,-0.3 0.4,-0.5c0,-0.1 0,-0.1 0,-0.2c0,-0.1 0.1,-0.2 0.1,-0.3c0,-0.1 -0.1,-0.1 -0.1,-0.2c0,-0.1 0,-0.2 0,-0.3c0,-0.2 0,-0.4 -0.1,-0.5c-0.4,-0.7 -1.2,-0.9 -2,-0.8c-0.2,0 -0.3,0.1 -0.4,0.2c-0.2,0.1 -0.1,0.2 -0.3,0.2c-0.1,0 -0.2,0.1 -0.2,0.2c0,0.3 0,0.2 0,0.3c-0.1,0 -0.1,0 0,0" fill="#FFFFFF"/>
      <path id="svg_72" d="m0.5,-33.4c0,0.1 0,0.1 0,0.2c-0.1,0.1 -0.1,0.1 -0.2,0.1c-0.1,0.1 -0.1,0.3 -0.1,0.4c-0.2,0.1 0,0.2 0,0.3c0,0 0,0.1 0,0.2c0,0.1 0,0.3 0.1,0.4c0.1,0.2 0.3,0.4 0.4,0.5c0.2,0.1 0.4,0.6 0.6,0.6c0.2,0 0.4,-0.1 0.5,-0.1c0.2,0 0.4,0 0.6,-0.1c0.2,-0.1 0.1,-0.3 0.3,-0.5c0.1,-0.1 0.3,0 0.4,-0.1c0.2,-0.1 0.3,-0.3 0.4,-0.5c0,-0.1 0,-0.1 0,-0.2c0,-0.1 0.1,-0.2 0.1,-0.3c0,-0.1 -0.1,-0.1 -0.1,-0.2c0,-0.1 0,-0.2 0,-0.3c0,-0.2 0,-0.4 -0.1,-0.5c-0.4,-0.7 -1.2,-0.9 -2,-0.8c-0.2,0 -0.3,0.1 -0.4,0.2c-0.2,0.1 -0.1,0.2 -0.3,0.2c-0.1,0 -0.2,0.1 -0.2,0.2c0,0.3 0,0.2 0,0.3c0,0 0,0 0,0" fill="#FFFFFF"/>
     </g>
     <g id="svg_73">
      <path id="svg_74" d="m69.4,-25.7c0,0.1 0,0.1 0,0.2c-0.1,0.1 -0.1,0.1 -0.2,0.1c-0.1,0.1 -0.1,0.3 -0.1,0.4c-0.2,0.1 0,0.2 0,0.3c0,0 0,0.1 0,0.2c0,0.1 0,0.3 0.1,0.4c0.1,0.2 0.3,0.4 0.4,0.5c0.2,0.1 0.4,0.6 0.6,0.6c0.2,0 0.4,-0.1 0.5,-0.1c0.2,0 0.4,0 0.6,-0.1c0.2,-0.1 0.1,-0.3 0.3,-0.5c0.1,-0.1 0.3,0 0.4,-0.1c0.2,-0.1 0.3,-0.3 0.4,-0.5c0,-0.1 0,-0.1 0,-0.2c0,-0.1 0.1,-0.2 0.1,-0.3c0,-0.1 -0.1,-0.1 -0.1,-0.2c0,-0.1 0,-0.2 0,-0.3c0,-0.2 0,-0.4 -0.1,-0.5c-0.4,-0.7 -1.2,-0.9 -2,-0.8c-0.2,0 -0.3,0.1 -0.4,0.2c-0.2,0.1 -0.1,0.2 -0.3,0.2c-0.1,0 -0.2,0.1 -0.2,0.2c0,0.2 0,0.2 0,0.3c0,0 0,0 0,0" fill="#FFFFFF"/>
      <path id="svg_75" d="m61.8,-25.7c0,0.1 0,0.1 0,0.2c-0.1,0.1 -0.1,0.1 -0.2,0.1c-0.1,0.1 -0.1,0.3 -0.1,0.4c-0.2,0.1 0,0.2 0,0.3c0,0 0,0.1 0,0.2c0,0.1 0,0.3 0.1,0.4c0.1,0.2 0.3,0.4 0.4,0.5c0.2,0.1 0.4,0.6 0.6,0.6c0.2,0 0.4,-0.1 0.5,-0.1c0.2,0 0.4,0 0.6,-0.1c0.2,-0.1 0.1,-0.3 0.3,-0.5c0.1,-0.1 0.3,0 0.4,-0.1c0.2,-0.1 0.3,-0.3 0.4,-0.5c0,-0.1 0,-0.1 0,-0.2c0,-0.1 0.1,-0.2 0.1,-0.3c0,-0.1 -0.1,-0.1 -0.1,-0.2c0,-0.1 0,-0.2 0,-0.3c0,-0.2 0,-0.4 -0.1,-0.5c-0.4,-0.7 -1.2,-0.9 -2,-0.8c-0.2,0 -0.3,0.1 -0.4,0.2c-0.2,0.1 -0.1,0.2 -0.3,0.2c-0.1,0 -0.2,0.1 -0.2,0.2c0,0.2 0,0.2 0,0.3c0,0 0,0 0,0" fill="#FFFFFF"/>
      <path id="svg_76" d="m54.1,-25.7c0,0.1 0,0.1 0,0.2c-0.1,0.1 -0.1,0.1 -0.2,0.1c-0.1,0.1 -0.1,0.3 -0.1,0.4c-0.2,0.1 0,0.2 0,0.3c0,0 0,0.1 0,0.2c0,0.1 0,0.3 0.1,0.4c0.1,0.2 0.3,0.4 0.4,0.5c0.2,0.1 0.4,0.6 0.6,0.6c0.2,0 0.4,-0.1 0.5,-0.1c0.2,0 0.4,0 0.6,-0.1c0.2,-0.1 0.1,-0.3 0.3,-0.5c0.1,-0.1 0.3,0 0.4,-0.1c0.2,-0.1 0.3,-0.3 0.4,-0.5c0,-0.1 0,-0.1 0,-0.2c0,-0.1 0.1,-0.2 0.1,-0.3c0,-0.1 -0.1,-0.1 -0.1,-0.2c0,-0.1 0,-0.2 0,-0.3c0,-0.2 0,-0.4 -0.1,-0.5c-0.4,-0.7 -1.2,-0.9 -2,-0.8c-0.2,0 -0.3,0.1 -0.4,0.2c-0.2,0.1 -0.1,0.2 -0.3,0.2c-0.1,0 -0.2,0.1 -0.2,0.2c0,0.2 0,0.2 0,0.3c0,0 0,0 0,0" fill="#FFFFFF"/>
      <path id="svg_77" d="m46.5,-25.7c0,0.1 0,0.1 0,0.2c-0.1,0.1 -0.1,0.1 -0.2,0.1c-0.1,0.1 -0.1,0.3 -0.1,0.4c-0.2,0.1 0,0.2 0,0.3c0,0 0,0.1 0,0.2c0,0.1 0,0.3 0.1,0.4c0.1,0.2 0.3,0.4 0.4,0.5c0.2,0.1 0.4,0.6 0.6,0.6c0.2,0 0.4,-0.1 0.5,-0.1c0.2,0 0.4,0 0.6,-0.1c0.2,-0.1 0.1,-0.3 0.3,-0.5c0.1,-0.1 0.3,0 0.4,-0.1c0.2,-0.1 0.3,-0.3 0.4,-0.5c0,-0.1 0,-0.1 0,-0.2c0,-0.1 0.1,-0.2 0.1,-0.3c0,-0.1 -0.1,-0.1 -0.1,-0.2c0,-0.1 0,-0.2 0,-0.3c0,-0.2 0,-0.4 -0.1,-0.5c-0.4,-0.7 -1.2,-0.9 -2,-0.8c-0.2,0 -0.3,0.1 -0.4,0.2c-0.2,0.1 -0.1,0.2 -0.3,0.2c-0.1,0 -0.2,0.1 -0.2,0.2c0,0.2 0,0.2 0,0.3c0,0 0,0 0,0" fill="#FFFFFF"/>
      <path id="svg_78" d="m38.8,-25.7c0,0.1 0,0.1 0,0.2c-0.1,0.1 -0.1,0.1 -0.2,0.1c-0.1,0.1 -0.1,0.3 -0.1,0.4c-0.2,0.1 0,0.2 0,0.3c0,0 0,0.1 0,0.2c0,0.1 0,0.3 0.1,0.4c0.1,0.2 0.3,0.4 0.4,0.5c0.2,0.1 0.4,0.6 0.6,0.6c0.2,0 0.4,-0.1 0.5,-0.1c0.2,0 0.4,0 0.6,-0.1c0.2,-0.1 0.1,-0.3 0.3,-0.5c0.1,-0.1 0.3,0 0.4,-0.1c0.2,-0.1 0.3,-0.3 0.4,-0.5c0,-0.1 0,-0.1 0,-0.2c0,-0.1 0.1,-0.2 0.1,-0.3c0,-0.1 -0.1,-0.1 -0.1,-0.2c0,-0.1 0,-0.2 0,-0.3c0,-0.2 0,-0.4 -0.1,-0.5c-0.4,-0.7 -1.2,-0.9 -2,-0.8c-0.2,0 -0.3,0.1 -0.4,0.2c-0.2,0.1 -0.1,0.2 -0.3,0.2c-0.1,0 -0.2,0.1 -0.2,0.2c0,0.2 0,0.2 0,0.3c0,0 0,0 0,0" fill="#FFFFFF"/>
      <path id="svg_79" d="m31.1,-25.7c0,0.1 0,0.1 0,0.2c-0.1,0.1 -0.1,0.1 -0.2,0.1c-0.1,0.1 -0.1,0.3 -0.1,0.4c-0.2,0.1 0,0.2 0,0.3c0,0 0,0.1 0,0.2c0,0.1 0,0.3 0.1,0.4c0.1,0.2 0.3,0.4 0.4,0.5c0.2,0.1 0.4,0.6 0.6,0.6c0.2,0 0.4,-0.1 0.5,-0.1c0.2,0 0.4,0 0.6,-0.1c0.2,-0.1 0.1,-0.3 0.3,-0.5c0.1,-0.1 0.3,0 0.4,-0.1c0.2,-0.1 0.3,-0.3 0.4,-0.5c0,-0.1 0,-0.1 0,-0.2c0,-0.1 0.1,-0.2 0.1,-0.3c0,-0.1 -0.1,-0.1 -0.1,-0.2c0,-0.1 0,-0.2 0,-0.3c0,-0.2 0,-0.4 -0.1,-0.5c-0.4,-0.7 -1.2,-0.9 -2,-0.8c-0.2,0 -0.3,0.1 -0.4,0.2c-0.2,0.1 -0.1,0.2 -0.3,0.2c-0.1,0 -0.2,0.1 -0.2,0.2c0,0.2 0,0.2 0,0.3c0,0 0,0 0,0" fill="#FFFFFF"/>
      <path id="svg_80" d="m23.5,-25.7c0,0.1 0,0.1 0,0.2c-0.1,0.1 -0.1,0.1 -0.2,0.1c-0.1,0.1 -0.1,0.3 -0.1,0.4c-0.2,0.1 0,0.2 0,0.3c0,0 0,0.1 0,0.2c0,0.1 0,0.3 0.1,0.4c0.1,0.2 0.3,0.4 0.4,0.5c0.2,0.1 0.4,0.6 0.6,0.6c0.2,0 0.4,-0.1 0.5,-0.1c0.2,0 0.4,0 0.6,-0.1c0.2,-0.1 0.1,-0.3 0.3,-0.5c0.1,-0.1 0.3,0 0.4,-0.1c0.2,-0.1 0.3,-0.3 0.4,-0.5c0,-0.1 0,-0.1 0,-0.2c0,-0.1 0.1,-0.2 0.1,-0.3c0,-0.1 -0.1,-0.1 -0.1,-0.2c0,-0.1 0,-0.2 0,-0.3c0,-0.2 0,-0.4 -0.1,-0.5c-0.4,-0.7 -1.2,-0.9 -2,-0.8c-0.2,0 -0.3,0.1 -0.4,0.2c-0.2,0.1 -0.1,0.2 -0.3,0.2c-0.1,0 -0.2,0.1 -0.2,0.2c0,0.2 0,0.2 0,0.3c0,0 0,0 0,0" fill="#FFFFFF"/>
      <path id="svg_81" d="m15.8,-25.7c0,0.1 0,0.1 0,0.2c-0.1,0.1 -0.1,0.1 -0.2,0.1c-0.1,0.1 -0.1,0.3 -0.1,0.4c-0.2,0.1 0,0.2 0,0.3c0,0 0,0.1 0,0.2c0,0.1 0,0.3 0.1,0.4c0.1,0.2 0.3,0.4 0.4,0.5c0.2,0.1 0.4,0.6 0.6,0.6c0.2,0 0.4,-0.1 0.5,-0.1c0.2,0 0.4,0 0.6,-0.1c0.2,-0.1 0.1,-0.3 0.3,-0.5c0.1,-0.1 0.3,0 0.4,-0.1c0.2,-0.1 0.3,-0.3 0.4,-0.5c0,-0.1 0,-0.1 0,-0.2c0,-0.1 0.1,-0.2 0.1,-0.3c0,-0.1 -0.1,-0.1 -0.1,-0.2c0,-0.1 0,-0.2 0,-0.3c0,-0.2 0,-0.4 -0.1,-0.5c-0.4,-0.7 -1.2,-0.9 -2,-0.8c-0.2,0 -0.3,0.1 -0.4,0.2c-0.2,0.1 -0.1,0.2 -0.3,0.2c-0.1,0 -0.2,0.1 -0.2,0.2c0,0.2 0,0.2 0,0.3c0,0 0,0 0,0" fill="#FFFFFF"/>
      <path id="svg_82" d="m8.2,-25.7c0,0.1 0,0.1 0,0.2c-0.1,0.1 -0.2,0 -0.2,0.1c-0.1,0.1 -0.1,0.3 -0.1,0.4c-0.2,0.1 0,0.2 0,0.3c0,0 0,0.1 0,0.2c0,0.1 0,0.3 0.1,0.4c0,0.1 0.2,0.3 0.3,0.5c0.2,0.1 0.4,0.6 0.6,0.6c0.2,0 0.4,-0.1 0.5,-0.1c0.2,0 0.4,0 0.6,-0.1c0.2,-0.1 0.1,-0.3 0.3,-0.5c0.1,-0.1 0.3,0 0.4,-0.1c0.2,-0.1 0.3,-0.3 0.4,-0.5c0,-0.1 0,-0.1 0,-0.2c0,-0.1 0.1,-0.2 0.1,-0.3c0,-0.1 -0.1,-0.1 -0.1,-0.2c0,-0.1 0,-0.2 0,-0.3c0,-0.2 0,-0.4 -0.1,-0.5c-0.4,-0.7 -1.2,-0.9 -2,-0.8c-0.2,0 -0.3,0.1 -0.4,0.2c-0.2,0.1 -0.1,0.2 -0.3,0.2c-0.1,0 -0.2,0.1 -0.2,0.2c0.1,0.2 0.1,0.2 0.1,0.3c-0.1,0 -0.1,0 0,0" fill="#FFFFFF"/>
      <path id="svg_83" d="m0.5,-25.7c0,0.1 0,0.1 0,0.2c-0.1,0.1 -0.1,0.1 -0.2,0.1c-0.1,0.1 -0.1,0.3 -0.1,0.4c-0.2,0.1 0,0.2 0,0.3c0,0 0,0.1 0,0.2c0,0.1 0,0.3 0.1,0.4c0.1,0.2 0.3,0.4 0.4,0.5c0.2,0.1 0.3,0.5 0.6,0.6c0.2,0 0.4,-0.1 0.5,-0.1c0.2,0 0.4,0 0.6,-0.1c0.2,-0.1 0.1,-0.3 0.3,-0.5c0.1,-0.1 0.3,0 0.4,-0.1c0.2,-0.1 0.3,-0.3 0.4,-0.5c0,-0.1 0,-0.1 0,-0.2c0,-0.1 0.1,-0.2 0.1,-0.3c0,-0.1 -0.1,-0.1 -0.1,-0.2c0,-0.1 0,-0.2 0,-0.3c0,-0.2 0,-0.4 -0.1,-0.5c-0.4,-0.7 -1.2,-0.9 -2,-0.8c-0.2,0 -0.3,0.1 -0.4,0.2c-0.2,0.1 -0.1,0.2 -0.3,0.2c-0.1,0 -0.2,0.1 -0.2,0.2c0,0.2 0,0.2 0,0.3c0,0 0,0 0,0" fill="#FFFFFF"/>
     </g>
     <g id="svg_84">
      <path id="svg_85" d="m69.4,-18.1c0,0.1 0,0.1 0,0.2c-0.1,0.1 -0.1,0.1 -0.2,0.1c-0.1,0.1 -0.1,0.3 -0.1,0.4c-0.2,0.1 0,0.2 0,0.3c0,0 0,0.1 0,0.2c0,0.1 0,0.3 0.1,0.4c0.1,0.2 0.3,0.4 0.4,0.5c0.2,0.1 0.4,0.6 0.6,0.6c0.2,0 0.4,-0.1 0.5,-0.1c0.2,0 0.4,0 0.6,-0.1c0.2,-0.1 0.1,-0.3 0.3,-0.5c0.1,-0.1 0.3,0 0.4,-0.1c0.2,-0.1 0.3,-0.3 0.4,-0.5c0,-0.1 0,-0.1 0,-0.2c0,-0.1 0.1,-0.2 0.1,-0.3c0,-0.1 -0.1,-0.1 -0.1,-0.2c0,-0.1 0,-0.2 0,-0.3c0,-0.2 0,-0.4 -0.1,-0.5c-0.4,-0.7 -1.2,-0.9 -2,-0.8c-0.2,0 -0.3,0.1 -0.4,0.2c-0.2,0.1 -0.1,0.2 -0.3,0.2c-0.1,0 -0.2,0.1 -0.2,0.2c0,0.3 0,0.2 0,0.3c0,0.1 0,0 0,0" fill="#FFFFFF"/>
      <path id="svg_86" d="m61.8,-18.1c0,0.1 0,0.1 0,0.2c-0.1,0.1 -0.1,0.1 -0.2,0.1c-0.1,0.1 -0.1,0.3 -0.1,0.4c-0.2,0.1 0,0.2 0,0.3c0,0 0,0.1 0,0.2c0,0.1 0,0.3 0.1,0.4c0.1,0.2 0.3,0.4 0.4,0.5c0.2,0.1 0.4,0.6 0.6,0.6c0.2,0 0.4,-0.1 0.5,-0.1c0.2,0 0.4,0 0.6,-0.1c0.2,-0.1 0.1,-0.3 0.3,-0.5c0.1,-0.1 0.3,0 0.4,-0.1c0.2,-0.1 0.3,-0.3 0.4,-0.5c0,-0.1 0,-0.1 0,-0.2c0,-0.1 0.1,-0.2 0.1,-0.3c0,-0.1 -0.1,-0.1 -0.1,-0.2c0,-0.1 0,-0.2 0,-0.3c0,-0.2 0,-0.4 -0.1,-0.5c-0.4,-0.7 -1.2,-0.9 -2,-0.8c-0.2,0 -0.3,0.1 -0.4,0.2c-0.2,0.1 -0.1,0.2 -0.3,0.2c-0.1,0 -0.2,0.1 -0.2,0.2c0,0.3 0,0.2 0,0.3c0,0.1 0,0 0,0" fill="#FFFFFF"/>
      <path id="svg_87" d="m54.1,-18.1c0,0.1 0,0.1 0,0.2c-0.1,0.1 -0.1,0.1 -0.2,0.1c-0.1,0.1 -0.1,0.3 -0.1,0.4c-0.2,0.1 0,0.2 0,0.3c0,0 0,0.1 0,0.2c0,0.1 0,0.3 0.1,0.4c0.1,0.2 0.3,0.4 0.4,0.5c0.2,0.1 0.4,0.6 0.6,0.6c0.2,0 0.4,-0.1 0.5,-0.1c0.2,0 0.4,0 0.6,-0.1c0.2,-0.1 0.1,-0.3 0.3,-0.5c0.1,-0.1 0.3,0 0.4,-0.1c0.2,-0.1 0.3,-0.3 0.4,-0.5c0,-0.1 0,-0.1 0,-0.2c0,-0.1 0.1,-0.2 0.1,-0.3c0,-0.1 -0.1,-0.1 -0.1,-0.2c0,-0.1 0,-0.2 0,-0.3c0,-0.2 0,-0.4 -0.1,-0.5c-0.4,-0.7 -1.2,-0.9 -2,-0.8c-0.2,0 -0.3,0.1 -0.4,0.2c-0.2,0.1 -0.1,0.2 -0.3,0.2c-0.1,0 -0.2,0.1 -0.2,0.2c0,0.3 0,0.2 0,0.3c0,0.1 0,0 0,0" fill="#FFFFFF"/>
      <path id="svg_88" d="m46.5,-18.1c0,0.1 0,0.1 0,0.2c-0.1,0.1 -0.1,0.1 -0.2,0.1c-0.1,0.1 -0.1,0.3 -0.1,0.4c-0.2,0.1 0,0.2 0,0.3c0,0 0,0.1 0,0.2c0,0.1 0,0.3 0.1,0.4c0.1,0.2 0.3,0.4 0.4,0.5c0.2,0.1 0.4,0.6 0.6,0.6c0.2,0 0.4,-0.1 0.5,-0.1c0.2,0 0.4,0 0.6,-0.1c0.2,-0.1 0.1,-0.3 0.3,-0.5c0.1,-0.1 0.3,0 0.4,-0.1c0.2,-0.1 0.3,-0.3 0.4,-0.5c0,-0.1 0,-0.1 0,-0.2c0,-0.1 0.1,-0.2 0.1,-0.3c0,-0.1 -0.1,-0.1 -0.1,-0.2c0,-0.1 0,-0.2 0,-0.3c0,-0.2 0,-0.4 -0.1,-0.5c-0.4,-0.7 -1.2,-0.9 -2,-0.8c-0.2,0 -0.3,0.1 -0.4,0.2c-0.2,0.1 -0.1,0.2 -0.3,0.2c-0.1,0 -0.2,0.1 -0.2,0.2c0,0.3 0,0.2 0,0.3c0,0.1 0,0 0,0" fill="#FFFFFF"/>
      <path id="svg_89" d="m38.8,-18.1c0,0.1 0,0.1 0,0.2c-0.1,0.1 -0.1,0.1 -0.2,0.1c-0.1,0.1 -0.1,0.3 -0.1,0.4c-0.2,0.1 0,0.2 0,0.3c0,0 0,0.1 0,0.2c0,0.1 0,0.3 0.1,0.4c0.1,0.2 0.3,0.4 0.4,0.5c0.2,0.1 0.4,0.6 0.6,0.6c0.2,0 0.4,-0.1 0.5,-0.1c0.2,0 0.4,0 0.6,-0.1c0.2,-0.1 0.1,-0.3 0.3,-0.5c0.1,-0.1 0.3,0 0.4,-0.1c0.2,-0.1 0.3,-0.3 0.4,-0.5c0,-0.1 0,-0.1 0,-0.2c0,-0.1 0.1,-0.2 0.1,-0.3c0,-0.1 -0.1,-0.1 -0.1,-0.2c0,-0.1 0,-0.2 0,-0.3c0,-0.2 0,-0.4 -0.1,-0.5c-0.4,-0.7 -1.2,-0.9 -2,-0.8c-0.2,0 -0.3,0.1 -0.4,0.2c-0.2,0.1 -0.1,0.2 -0.3,0.2c-0.1,0 -0.2,0.1 -0.2,0.2c0,0.3 0,0.2 0,0.3c0,0.1 0,0 0,0" fill="#FFFFFF"/>
      <path id="svg_90" d="m31.1,-18.1c0,0.1 0,0.1 0,0.2c-0.1,0.1 -0.1,0.1 -0.2,0.1c-0.1,0.1 -0.1,0.3 -0.1,0.4c-0.2,0.1 0,0.2 0,0.3c0,0 0,0.1 0,0.2c0,0.1 0,0.3 0.1,0.4c0.1,0.2 0.3,0.4 0.4,0.5c0.2,0.1 0.4,0.6 0.6,0.6c0.2,0 0.4,-0.1 0.5,-0.1c0.2,0 0.4,0 0.6,-0.1c0.2,-0.1 0.1,-0.3 0.3,-0.5c0.1,-0.1 0.3,0 0.4,-0.1c0.2,-0.1 0.3,-0.3 0.4,-0.5c0,-0.1 0,-0.1 0,-0.2c0,-0.1 0.1,-0.2 0.1,-0.3c0,-0.1 -0.1,-0.1 -0.1,-0.2c0,-0.1 0,-0.2 0,-0.3c0,-0.2 0,-0.4 -0.1,-0.5c-0.4,-0.7 -1.2,-0.9 -2,-0.8c-0.2,0 -0.3,0.1 -0.4,0.2c-0.2,0.1 -0.1,0.2 -0.3,0.2c-0.1,0 -0.2,0.1 -0.2,0.2c0,0.3 0,0.2 0,0.3c0,0.1 0,0 0,0" fill="#FFFFFF"/>
      <path id="svg_91" d="m23.5,-18.1c0,0.1 0,0.1 0,0.2c-0.1,0.1 -0.1,0.1 -0.2,0.1c-0.1,0.1 -0.1,0.3 -0.1,0.4c-0.2,0.1 0,0.2 0,0.3c0,0 0,0.1 0,0.2c0,0.1 0,0.3 0.1,0.4c0.1,0.2 0.3,0.4 0.4,0.5c0.2,0.1 0.4,0.6 0.6,0.6c0.2,0 0.4,-0.1 0.5,-0.1c0.2,0 0.4,0 0.6,-0.1c0.2,-0.1 0.1,-0.3 0.3,-0.5c0.1,-0.1 0.3,0 0.4,-0.1c0.2,-0.1 0.3,-0.3 0.4,-0.5c0,-0.1 0,-0.1 0,-0.2c0,-0.1 0.1,-0.2 0.1,-0.3c0,-0.1 -0.1,-0.1 -0.1,-0.2c0,-0.1 0,-0.2 0,-0.3c0,-0.2 0,-0.4 -0.1,-0.5c-0.4,-0.7 -1.2,-0.9 -2,-0.8c-0.2,0 -0.3,0.1 -0.4,0.2c-0.2,0.1 -0.1,0.2 -0.3,0.2c-0.1,0 -0.2,0.1 -0.2,0.2c0,0.3 0,0.2 0,0.3c0,0.1 0,0 0,0" fill="#FFFFFF"/>
      <path id="svg_92" d="m15.8,-18.1c0,0.1 0,0.1 0,0.2c-0.1,0.1 -0.1,0.1 -0.2,0.1c-0.1,0.1 -0.1,0.3 -0.1,0.4c-0.2,0.1 0,0.2 0,0.3c0,0 0,0.1 0,0.2c0,0.1 0,0.3 0.1,0.4c0.1,0.2 0.3,0.4 0.4,0.5c0.2,0.1 0.4,0.6 0.6,0.6c0.2,0 0.4,-0.1 0.5,-0.1c0.2,0 0.4,0 0.6,-0.1c0.2,-0.1 0.1,-0.3 0.3,-0.5c0.1,-0.1 0.3,0 0.4,-0.1c0.2,-0.1 0.3,-0.3 0.4,-0.5c0,-0.1 0,-0.1 0,-0.2c0,-0.1 0.1,-0.2 0.1,-0.3c0,-0.1 -0.1,-0.1 -0.1,-0.2c0,-0.1 0,-0.2 0,-0.3c0,-0.2 0,-0.4 -0.1,-0.5c-0.4,-0.7 -1.2,-0.9 -2,-0.8c-0.2,0 -0.3,0.1 -0.4,0.2c-0.2,0.1 -0.1,0.2 -0.3,0.2c-0.1,0 -0.2,0.1 -0.2,0.2c0,0.3 0,0.2 0,0.3c0,0.1 0,0 0,0" fill="#FFFFFF"/>
      <path id="svg_93" d="m8.2,-18.1c0,0.1 0,0.1 0,0.2c-0.1,0.1 -0.2,0.1 -0.2,0.1c-0.1,0.1 -0.1,0.3 -0.1,0.4c-0.2,0.1 0,0.2 0,0.3c0,0 0,0.1 0,0.2c0,0.1 0,0.3 0.1,0.4c0,0.2 0.2,0.4 0.3,0.5c0.2,0.1 0.4,0.6 0.6,0.6c0.2,0 0.4,-0.1 0.5,-0.1c0.2,0 0.4,0 0.6,-0.1c0.2,-0.1 0.1,-0.3 0.3,-0.5c0.1,-0.1 0.3,0 0.4,-0.1c0.2,-0.1 0.3,-0.3 0.4,-0.5c0,-0.1 0,-0.1 0,-0.2c0,-0.1 0.1,-0.2 0.1,-0.3c0,-0.1 -0.1,-0.1 -0.1,-0.2c0,-0.1 0,-0.2 0,-0.3c0,-0.2 0,-0.4 -0.1,-0.5c-0.4,-0.7 -1.2,-0.9 -2,-0.8c-0.2,0 -0.3,0.1 -0.4,0.2c-0.2,0.1 -0.1,0.2 -0.3,0.2c-0.1,0 -0.2,0.1 -0.2,0.2c0.1,0.3 0.1,0.2 0.1,0.3c-0.1,0.1 -0.1,0 0,0" fill="#FFFFFF"/>
      <path id="svg_94" d="m0.5,-18.1c0,0.1 0,0.1 0,0.2c-0.1,0.1 -0.1,0.1 -0.2,0.1c-0.1,0.1 -0.1,0.3 -0.1,0.4c-0.2,0.1 0,0.2 0,0.3c0,0 0,0.1 0,0.2c0,0.1 0,0.3 0.1,0.4c0.1,0.2 0.3,0.4 0.4,0.5c0.2,0.1 0.4,0.6 0.6,0.6c0.2,0 0.4,-0.1 0.5,-0.1c0.2,0 0.4,0 0.6,-0.1c0.2,-0.1 0.1,-0.3 0.3,-0.5c0.1,0 0.3,0.1 0.4,0.1c0.2,-0.1 0.3,-0.3 0.4,-0.5c0,-0.1 0,-0.1 0,-0.2c0,-0.1 0.1,-0.2 0.1,-0.3c0,-0.1 -0.1,-0.1 -0.1,-0.2c0,-0.1 0,-0.2 0,-0.3c0,-0.2 0,-0.4 -0.1,-0.5c-0.4,-0.7 -1.2,-0.9 -2,-0.8c-0.2,0 -0.3,0.1 -0.4,0.2c-0.2,0.1 -0.1,0.2 -0.3,0.2c-0.1,0 -0.2,0.1 -0.2,0.2c0,0.1 0,0 0,0.1c0,0.1 0,0 0,0" fill="#FFFFFF"/>
     </g>
     <g id="svg_95">
      <path id="svg_96" d="m69.4,-10.4c0,0.1 0,0.1 0,0.2c-0.1,0.1 -0.1,0.1 -0.2,0.1c-0.1,0.1 -0.1,0.3 -0.1,0.4c-0.2,0.1 0,0.2 0,0.3c0,0 0,0.1 0,0.2c0,0.1 0,0.3 0.1,0.4c0.1,0.2 0.3,0.4 0.4,0.5c0.2,0.1 0.4,0.6 0.6,0.6c0.2,0 0.4,-0.1 0.5,-0.1c0.2,0 0.4,0 0.6,-0.1c0.2,-0.1 0.1,-0.3 0.3,-0.5c0.1,-0.1 0.3,0 0.4,-0.1c0.2,-0.1 0.3,-0.3 0.4,-0.5c0,-0.1 0,-0.1 0,-0.2c0,-0.1 0.1,-0.2 0.1,-0.3c0,-0.1 -0.1,-0.1 -0.1,-0.2c0,-0.1 0,-0.2 0,-0.3c0,-0.2 0,-0.4 -0.1,-0.5c-0.4,-0.7 -1.2,-0.9 -2,-0.8c-0.2,0 -0.3,0.1 -0.4,0.2c-0.2,0.1 -0.1,0.2 -0.3,0.2c-0.1,0 -0.2,0.1 -0.2,0.2c0,0.2 0,0.2 0,0.3c0,0 0,0 0,0" fill="#FFFFFF"/>
      <path id="svg_97" d="m61.8,-10.4c0,0.1 0,0.1 0,0.2c-0.1,0.1 -0.1,0.1 -0.2,0.1c-0.1,0.1 -0.1,0.3 -0.1,0.4c-0.2,0.1 0,0.2 0,0.3c0,0 0,0.1 0,0.2c0,0.1 0,0.3 0.1,0.4c0.1,0.2 0.3,0.4 0.4,0.5c0.2,0.1 0.4,0.6 0.6,0.6c0.2,0 0.4,-0.1 0.5,-0.1c0.2,0 0.4,0 0.6,-0.1c0.2,-0.1 0.1,-0.3 0.3,-0.4c0.1,-0.1 0.3,0 0.4,-0.1c0.2,-0.1 0.3,-0.3 0.4,-0.5c0,-0.1 0,-0.1 0,-0.2c0,-0.1 0.1,-0.2 0.1,-0.3c0,-0.1 -0.1,-0.1 -0.1,-0.2c0,-0.1 0,-0.2 0,-0.3c0,-0.2 0,-0.4 -0.1,-0.5c-0.4,-0.7 -1.2,-0.9 -2,-0.8c-0.2,0 -0.3,0.1 -0.4,0.2c-0.2,0.1 -0.1,0.2 -0.3,0.2c-0.1,0 -0.2,0.1 -0.2,0.2c0,0.1 0,0.1 0,0.2c0,0 0,0 0,0" fill="#FFFFFF"/>
      <path id="svg_98" d="m54.1,-10.4c0,0.1 0,0.1 0,0.2c-0.1,0.1 -0.1,0.1 -0.2,0.1c-0.1,0.1 -0.1,0.3 -0.1,0.4c-0.2,0.1 0,0.2 0,0.3c0,0 0,0.1 0,0.2c0,0.1 0,0.3 0.1,0.4c0.1,0.2 0.3,0.4 0.4,0.5c0.2,0.1 0.4,0.6 0.6,0.6c0.2,0 0.4,-0.1 0.5,-0.1c0.2,0 0.4,0 0.6,-0.1c0.2,-0.1 0.1,-0.3 0.3,-0.5c0.1,-0.1 0.3,0 0.4,-0.1c0.2,-0.1 0.3,-0.3 0.4,-0.5c0,-0.1 0,-0.1 0,-0.2c0,-0.1 0.1,-0.2 0.1,-0.3c0,-0.1 -0.1,-0.1 -0.1,-0.2c0,-0.1 0,-0.2 0,-0.3c0,-0.2 0,-0.4 -0.1,-0.5c-0.4,-0.7 -1.2,-0.9 -2,-0.8c-0.2,0 -0.3,0.1 -0.4,0.2c-0.2,0.1 -0.1,0.2 -0.3,0.2c-0.1,0 -0.2,0.1 -0.2,0.2c0,0.2 0,0.2 0,0.3c0,0 0,0 0,0" fill="#FFFFFF"/>
      <path id="svg_99" d="m46.5,-10.4c0,0.1 0,0.1 0,0.2c-0.1,0.1 -0.1,0.1 -0.2,0.1c-0.1,0.1 -0.1,0.3 -0.1,0.4c-0.2,0.1 0,0.2 0,0.3c0,0 0,0.1 0,0.2c0,0.1 0,0.3 0.1,0.4c0.1,0.2 0.3,0.4 0.4,0.5c0.2,0.1 0.4,0.6 0.6,0.6c0.2,0 0.4,-0.1 0.5,-0.1c0.2,0 0.4,0 0.6,-0.1c0.2,-0.1 0.1,-0.3 0.3,-0.5c0.1,-0.1 0.3,0 0.4,-0.1c0.2,-0.1 0.3,-0.3 0.4,-0.5c0,-0.1 0,-0.1 0,-0.2c0,-0.1 0.1,-0.2 0.1,-0.3c0,-0.1 -0.1,-0.1 -0.1,-0.2c0,-0.1 0,-0.2 0,-0.3c0,-0.2 0,-0.4 -0.1,-0.5c-0.4,-0.7 -1.2,-0.9 -2,-0.8c-0.2,0 -0.3,0.1 -0.4,0.2c-0.2,0.1 -0.1,0.2 -0.3,0.2c-0.1,0 -0.2,0.1 -0.2,0.2c0,0.2 0,0.2 0,0.3c0,0 0,0 0,0" fill="#FFFFFF"/>
      <path id="svg_100" d="m38.8,-10.4c0,0.1 0,0.1 0,0.2c-0.1,0.1 -0.1,0.1 -0.2,0.1c-0.1,0.1 -0.1,0.3 -0.1,0.4c-0.2,0.1 0,0.2 0,0.3c0,0 0,0.1 0,0.2c0,0.1 0,0.3 0.1,0.4c0.1,0.2 0.3,0.4 0.4,0.5c0.2,0.1 0.4,0.6 0.6,0.6c0.2,0 0.4,-0.1 0.5,-0.1c0.2,0 0.4,0 0.6,-0.1c0.2,-0.1 0.1,-0.3 0.3,-0.4c0.1,-0.1 0.3,0 0.4,-0.1c0.2,-0.1 0.3,-0.3 0.4,-0.5c0,-0.1 0,-0.1 0,-0.2c0,-0.1 0.1,-0.2 0.1,-0.3c0,-0.1 -0.1,-0.1 -0.1,-0.2c0,-0.1 0,-0.2 0,-0.3c0,-0.2 0,-0.4 -0.1,-0.5c-0.4,-0.7 -1.2,-0.9 -2,-0.8c-0.2,0 -0.3,0.1 -0.4,0.2c-0.2,0.1 -0.1,0.2 -0.3,0.2c-0.1,0 -0.2,0.1 -0.2,0.2c0,0.1 0,0.1 0,0.2c0,0 0,0 0,0" fill="#FFFFFF"/>
      <path id="svg_101" d="m31.1,-10.4c0,0.1 0,0.1 0,0.2c-0.1,0.1 -0.1,0.1 -0.2,0.1c-0.1,0.1 -0.1,0.3 -0.1,0.4c-0.2,0.1 0,0.2 0,0.3c0,0 0,0.1 0,0.2c0,0.1 0,0.3 0.1,0.4c0.1,0.2 0.3,0.4 0.4,0.5c0.2,0.1 0.4,0.6 0.6,0.6c0.2,0 0.4,-0.1 0.5,-0.1c0.2,0 0.4,0 0.6,-0.1c0.2,-0.1 0.1,-0.3 0.3,-0.5c0.1,-0.1 0.3,0 0.4,-0.1c0.2,-0.1 0.3,-0.3 0.4,-0.5c0,-0.1 0,-0.1 0,-0.2c0,-0.1 0.1,-0.2 0.1,-0.3c0,-0.1 -0.1,-0.1 -0.1,-0.2c0,-0.1 0,-0.2 0,-0.3c0,-0.2 0,-0.4 -0.1,-0.5c-0.4,-0.7 -1.2,-0.9 -2,-0.8c-0.2,0 -0.3,0.1 -0.4,0.2c-0.2,0.1 -0.1,0.2 -0.3,0.2c-0.1,0 -0.2,0.1 -0.2,0.2c0,0.2 0,0.2 0,0.3c0,0 0,0 0,0" fill="#FFFFFF"/>
      <path id="svg_102" d="m23.5,-10.4c0,0.1 0,0.1 0,0.2c-0.1,0.1 -0.1,0.1 -0.2,0.1c-0.1,0.1 -0.1,0.3 -0.1,0.4c-0.2,0.1 0,0.2 0,0.3c0,0 0,0.1 0,0.2c0,0.1 0,0.3 0.1,0.4c0.1,0.2 0.3,0.4 0.4,0.5c0.2,0.1 0.4,0.6 0.6,0.6c0.2,0 0.4,-0.1 0.5,-0.1c0.2,0 0.4,0 0.6,-0.1c0.2,-0.1 0.1,-0.3 0.3,-0.5c0.1,-0.1 0.3,0 0.4,-0.1c0.2,-0.1 0.3,-0.3 0.4,-0.5c0,-0.1 0,-0.1 0,-0.2c0,-0.1 0.1,-0.2 0.1,-0.3c0,-0.1 -0.1,-0.1 -0.1,-0.2c0,-0.1 0,-0.2 0,-0.3c0,-0.2 0,-0.4 -0.1,-0.5c-0.4,-0.7 -1.2,-0.9 -2,-0.8c-0.2,0 -0.3,0.1 -0.4,0.2c-0.2,0.1 -0.1,0.2 -0.3,0.2c-0.1,0 -0.2,0.1 -0.2,0.2c0,0.2 0,0.2 0,0.3c0,0 0,0 0,0" fill="#FFFFFF"/>
      <path id="svg_103" d="m15.8,-10.4c0,0.1 0,0.1 0,0.2c-0.1,0.1 -0.1,0.1 -0.2,0.1c-0.1,0.1 -0.1,0.3 -0.1,0.4c-0.2,0.1 0,0.2 0,0.3c0,0 0,0.1 0,0.2c0,0.1 0,0.3 0.1,0.4c0.1,0.2 0.3,0.4 0.4,0.5c0.2,0.1 0.4,0.6 0.6,0.6c0.2,0 0.4,-0.1 0.5,-0.1c0.2,0 0.4,0 0.6,-0.1c0.2,-0.1 0.1,-0.3 0.3,-0.4c0.1,-0.1 0.3,0 0.4,-0.1c0.2,-0.1 0.3,-0.3 0.4,-0.5c0,-0.1 0,-0.1 0,-0.2c0,-0.1 0.1,-0.2 0.1,-0.3c0,-0.1 -0.1,-0.1 -0.1,-0.2c0,-0.1 0,-0.2 0,-0.3c0,-0.2 0,-0.4 -0.1,-0.5c-0.4,-0.7 -1.2,-0.9 -2,-0.8c-0.2,0 -0.3,0.1 -0.4,0.2c-0.2,0.1 -0.1,0.2 -0.3,0.2c-0.1,0 -0.2,0.1 -0.2,0.2c0,0.1 0,0.1 0,0.2c0,0 0,0 0,0" fill="#FFFFFF"/>
      <path id="svg_104" d="m8.2,-10.4c0,0.1 0,0.1 0,0.2c-0.1,0.1 -0.2,0 -0.2,0.1c-0.1,0.1 -0.1,0.3 -0.1,0.3c-0.2,0.1 0,0.2 0,0.3c0,0 0,0.1 0,0.2c0,0.1 0,0.3 0.1,0.4c0,0.2 0.2,0.4 0.3,0.6c0.2,0.1 0.4,0.6 0.6,0.6c0.2,0 0.4,-0.1 0.5,-0.1c0.2,0 0.4,0 0.6,-0.1c0.2,-0.1 0.1,-0.3 0.3,-0.5c0.1,-0.1 0.3,0 0.4,-0.1c0.2,-0.1 0.3,-0.3 0.4,-0.5c0,-0.1 0,-0.1 0,-0.2c0,-0.1 0.1,-0.2 0.1,-0.3c0,-0.1 -0.1,-0.1 -0.1,-0.2c0,-0.1 0,-0.2 0,-0.3c0,-0.2 0,-0.4 -0.1,-0.5c-0.4,-0.7 -1.2,-0.9 -2,-0.8c-0.2,0 -0.3,0.1 -0.4,0.2c-0.2,0.1 -0.1,0.2 -0.3,0.2c-0.1,0 -0.2,0.1 -0.2,0.2c0.1,0.2 0.1,0.2 0.1,0.3c-0.1,0 -0.1,0 0,0" fill="#FFFFFF"/>
      <path id="svg_105" d="m0.5,-10.4c0,0.1 0,0.1 0,0.2c-0.1,0.1 -0.1,0.1 -0.2,0.1c0,0.1 -0.1,0.3 -0.1,0.3c-0.2,0.1 0,0.2 0,0.3c0,0 0,0.1 0,0.2c0,0.1 0,0.3 0.1,0.4c0.1,0.2 0.3,0.4 0.4,0.5c0.2,0.2 0.3,0.6 0.6,0.7c0.2,0 0.4,-0.1 0.5,-0.1c0.2,0 0.4,0 0.6,-0.1c0.2,-0.1 0.1,-0.3 0.3,-0.4c0.1,-0.1 0.3,0 0.4,-0.1c0.2,-0.1 0.3,-0.3 0.4,-0.5c0,-0.1 0,-0.1 0,-0.2c0,-0.1 0.1,-0.2 0.1,-0.3c0,-0.1 -0.1,-0.1 -0.1,-0.2c0,-0.1 0,-0.2 0,-0.3c0,-0.2 0,-0.4 -0.1,-0.5c-0.4,-0.7 -1.2,-0.9 -2,-0.8c-0.2,0 -0.3,0.1 -0.4,0.2c-0.2,0.1 -0.1,0.2 -0.3,0.2c-0.1,0 -0.2,0.1 -0.2,0.2c0,0.1 0,0.1 0,0.2c0,0 0,0 0,0" fill="#FFFFFF"/>
     </g>
    </g>
    <g id="svg_106">
     <path id="svg_107" d="m69.4,-2.8c0,0.1 0,0.1 0,0.2c-0.1,0.1 -0.1,0.1 -0.2,0.1c-0.1,0.1 -0.1,0.3 -0.1,0.4c-0.2,0.1 0,0.2 0,0.3c0,0 0,0.1 0,0.2c0,0.1 0,0.3 0.1,0.4c0.1,0.2 0.3,0.4 0.4,0.5c0.2,0.2 0.4,0.6 0.6,0.7c0.2,0 0.4,-0.1 0.5,-0.1c0.2,0 0.4,0 0.6,-0.1c0.2,-0.1 0.1,-0.3 0.3,-0.5c0.1,-0.1 0.3,0 0.4,-0.1c0.2,-0.1 0.3,-0.3 0.4,-0.5c0,-0.1 0,-0.1 0,-0.2c0,-0.1 0.1,-0.2 0.1,-0.3c0,-0.1 -0.1,-0.1 -0.1,-0.2c0,-0.1 0,-0.2 0,-0.3c0,-0.2 0,-0.4 -0.1,-0.5c-0.4,-0.7 -1.2,-0.9 -2,-0.8c-0.2,0 -0.3,0.1 -0.4,0.2c-0.2,0.1 -0.1,0.2 -0.3,0.2c-0.1,0 -0.2,0.1 -0.2,0.2c0,0.2 0,0.1 0,0.2c0,0.1 0,0 0,0" fill="#FFFFFF"/>
     <path id="svg_108" d="m61.8,-2.8c0,0.1 0,0.1 0,0.2c-0.1,0.1 -0.1,0.1 -0.2,0.1c-0.1,0.1 -0.1,0.3 -0.1,0.4c-0.2,0.1 0,0.2 0,0.3c0,0 0,0.1 0,0.2c0,0.1 0,0.3 0.1,0.4c0,0.2 0.2,0.4 0.4,0.5c0.2,0.1 0.4,0.6 0.6,0.6c0.2,0 0.4,-0.1 0.5,-0.1c0.2,0 0.4,0 0.6,-0.1c0.2,-0.1 0.1,-0.3 0.3,-0.5c0.1,-0.1 0.3,0 0.4,-0.1c0.2,-0.1 0.3,-0.3 0.4,-0.5c0,-0.1 0,-0.1 0,-0.2c0,-0.1 0.1,-0.2 0.1,-0.3c0,-0.1 -0.1,-0.1 -0.1,-0.2c0,-0.1 0,-0.2 0,-0.3c0,-0.2 0,-0.4 -0.1,-0.5c-0.4,-0.7 -1.2,-0.9 -2,-0.8c-0.2,0 -0.3,0.1 -0.4,0.2c-0.2,0.1 -0.1,0.2 -0.3,0.2c-0.1,0 -0.2,0.1 -0.2,0.2c0,0.3 0,0.2 0,0.3c0,0.1 0,0 0,0" fill="#FFFFFF"/>
     <path id="svg_109" d="m54.1,-2.8c0,0.1 0,0.1 0,0.2c-0.1,0.1 -0.1,0.1 -0.2,0.1c-0.1,0.1 -0.1,0.3 -0.1,0.4c-0.2,0.1 0,0.2 0,0.3c0,0 0,0.1 0,0.2c0,0.1 0,0.3 0.1,0.4c0.1,0.2 0.2,0.4 0.4,0.5c0.2,0.1 0.4,0.6 0.6,0.6c0.2,0 0.4,-0.1 0.5,-0.1c0.2,0 0.4,0 0.6,-0.1c0.2,-0.1 0.1,-0.3 0.3,-0.5c0.1,-0.1 0.3,0 0.4,-0.1c0.2,0.1 0.3,-0.1 0.4,-0.3c0,-0.1 0,-0.1 0,-0.2c0,-0.1 0.1,-0.2 0.1,-0.3c0,-0.1 -0.1,-0.1 -0.1,-0.2c0,-0.1 0,-0.2 0,-0.3c0,-0.2 0,-0.4 -0.1,-0.5c-0.4,-0.7 -1.2,-0.9 -2,-0.8c-0.2,0 -0.3,0.1 -0.4,0.2c-0.2,0.1 -0.1,0.2 -0.3,0.2c-0.1,0 -0.2,0.1 -0.2,0.2c0,0.1 0,0 0,0.1c0,0.1 0,0 0,0" fill="#FFFFFF"/>
     <path id="svg_110" d="m46.5,-2.8c0,0.1 0,0.1 0,0.2c-0.1,0.1 -0.1,0.1 -0.2,0.1c-0.1,0.1 -0.1,0.3 -0.1,0.4c-0.2,0.1 0,0.2 0,0.3c0,0 0,0.1 0,0.2c0,0.1 0,0.3 0.1,0.4c0.1,0.2 0.3,0.4 0.4,0.5c0.1,0.2 0.3,0.6 0.5,0.7c0.2,0 0.4,-0.1 0.5,-0.1c0.2,0 0.4,0 0.6,-0.1c0.2,-0.1 0.1,-0.3 0.3,-0.5c0.1,-0.1 0.3,0 0.4,-0.1c0.2,-0.1 0.3,-0.3 0.4,-0.5c0,-0.1 0,-0.1 0,-0.2c0,-0.1 0.1,-0.2 0.1,-0.3c0,-0.1 -0.1,-0.1 -0.1,-0.2c0,-0.1 0,-0.2 0,-0.3c0,-0.2 0,-0.4 -0.1,-0.5c-0.4,-0.7 -1.2,-0.9 -2,-0.8c-0.2,0 -0.3,0.1 -0.4,0.2c-0.2,0.1 -0.1,0.2 -0.3,0.2c-0.1,0 -0.2,0.1 -0.2,0.2c0.1,0.2 0.1,0.1 0.1,0.2c0,0.1 0,0 0,0" fill="#FFFFFF"/>
     <path id="svg_111" d="m38.8,-2.8c0,0.1 0,0.1 0,0.2c-0.1,0.1 -0.1,0.1 -0.2,0.1c-0.1,0.1 -0.1,0.3 -0.1,0.4c-0.2,0.1 0,0.2 0,0.3c0,0 0,0.1 0,0.2c0,0.1 0,0.3 0.1,0.4c0,0.2 0.2,0.4 0.4,0.5c0.2,0.1 0.4,0.6 0.6,0.6c0.2,0 0.4,-0.1 0.5,-0.1c0.2,0 0.4,0 0.6,-0.1c0.2,-0.1 0.1,-0.3 0.3,-0.5c0.1,-0.1 0.3,0 0.4,-0.1c0.2,-0.1 0.3,-0.3 0.4,-0.5c0,-0.1 0,-0.1 0,-0.2c0,-0.1 0.1,-0.2 0.1,-0.3c0,-0.1 -0.1,-0.1 -0.1,-0.2c0,-0.1 0,-0.2 0,-0.3c0,-0.2 0,-0.4 -0.1,-0.5c-0.4,-0.7 -1.2,-0.9 -2,-0.8c-0.2,0 -0.3,0.1 -0.4,0.2c-0.2,0.1 -0.1,0.2 -0.3,0.2c-0.1,0 -0.2,0.1 -0.2,0.2c0,0.3 0,0.2 0,0.3c0,0.1 0,0 0,0" fill="#FFFFFF"/>
     <path id="svg_112" d="m31.1,-2.8c0,0.1 0,0.1 0,0.2c-0.1,0.1 -0.1,0.1 -0.2,0.1c-0.1,0.1 -0.1,0.3 -0.1,0.4c-0.2,0.1 0,0.2 0,0.3c0,0 0,0.1 0,0.2c0,0.1 0,0.3 0.1,0.4c0.1,0.2 0.2,0.4 0.4,0.5c0.2,0.1 0.4,0.6 0.6,0.6c0.2,0 0.4,-0.1 0.5,-0.1c0.2,0 0.4,0 0.6,-0.1c0.2,-0.1 0.1,-0.3 0.3,-0.5c0.1,-0.1 0.3,0 0.4,-0.1c0.2,-0.1 0.3,-0.3 0.4,-0.5c0,-0.1 0,-0.1 0,-0.2c0,-0.1 0.1,-0.2 0.1,-0.3c0,-0.1 -0.1,-0.1 -0.1,-0.2c0,-0.1 0,-0.2 0,-0.3c0,-0.2 0,-0.4 -0.1,-0.5c-0.4,-0.7 -1.2,-0.9 -2,-0.8c-0.2,0 -0.3,0.1 -0.4,0.2c-0.2,0.1 -0.1,0.2 -0.3,0.2c-0.1,0 -0.2,0.1 -0.2,0.2c0,0.3 0,0.2 0,0.3c0,0.1 0,0 0,0" fill="#FFFFFF"/>
     <path id="svg_113" d="m23.5,-2.8c0,0.1 0,0.1 0,0.2c-0.1,0.1 -0.1,0.1 -0.2,0.1c-0.1,0.1 -0.1,0.3 -0.1,0.4c-0.2,0.1 0,0.2 0,0.3c0,0 0,0.1 0,0.2c0,0.1 0,0.3 0.1,0.4c0.1,0.2 0.3,0.4 0.4,0.5c0.1,0.2 0.3,0.6 0.6,0.7c0.2,0 0.4,-0.1 0.5,-0.1c0.2,0 0.4,0 0.6,-0.1c0.2,-0.1 0.1,-0.3 0.3,-0.5c0.1,-0.1 0.3,0 0.4,-0.1c0.2,-0.1 0.3,-0.3 0.4,-0.5c0,-0.1 0,-0.1 0,-0.2c0,-0.1 0.1,-0.2 0.1,-0.3c0,-0.1 -0.1,-0.1 -0.1,-0.2c0,-0.1 0,-0.2 0,-0.3c0,-0.2 0,-0.4 -0.1,-0.5c-0.4,-0.7 -1.2,-0.9 -2,-0.8c-0.2,0 -0.3,0.1 -0.4,0.2c-0.2,0.1 -0.1,0.2 -0.3,0.2c-0.1,0 -0.2,0.1 -0.2,0.2c0,0.2 0,0.1 0,0.2c0,0.1 0,0 0,0" fill="#FFFFFF"/>
     <path id="svg_114" d="m15.8,-2.8c0,0.1 0,0.1 0,0.2c-0.1,0.1 -0.1,0.1 -0.2,0.1c-0.1,0.1 -0.1,0.3 -0.1,0.4c-0.2,0.1 0,0.2 0,0.3c0,0 0,0.1 0,0.2c0,0.1 0,0.3 0.1,0.4c0.1,0.2 0.2,0.4 0.4,0.5c0.2,0.1 0.4,0.6 0.6,0.6c0.2,0 0.4,-0.1 0.5,-0.1c0.2,0 0.4,0 0.6,-0.1c0.2,-0.1 0.1,-0.3 0.3,-0.5c0.1,-0.1 0.3,0 0.4,-0.1c0.2,-0.1 0.3,-0.3 0.4,-0.5c0,-0.1 0,-0.1 0,-0.2c0,-0.1 0.1,-0.2 0.1,-0.3c0,-0.1 -0.1,-0.1 -0.1,-0.2c0,-0.1 0,-0.2 0,-0.3c0,-0.2 0,-0.4 -0.1,-0.5c-0.4,-0.7 -1.2,-0.9 -2,-0.8c-0.2,0 -0.3,0.1 -0.4,0.2c-0.2,0.1 -0.1,0.2 -0.3,0.2c-0.1,0 -0.2,0.1 -0.2,0.2c0,0.3 0,0.2 0,0.3c0,0.1 0,0 0,0" fill="#FFFFFF"/>
     <path id="svg_115" d="m8.2,-2.8c0,0.1 0,0.1 0,0.2c-0.1,0.1 -0.2,0.1 -0.2,0.1c-0.1,0.1 -0.1,0.3 -0.1,0.4c-0.2,0.1 0,0.2 0,0.3c0,0 0,0.1 0,0.2c0,0.1 0,0.3 0.1,0.4c0,0.2 0.2,0.4 0.3,0.5c0.2,0.2 0.4,0.6 0.6,0.7c0.2,0 0.4,-0.1 0.5,-0.1c0.2,0 0.4,0 0.6,-0.1c0.2,-0.1 0.1,-0.3 0.3,-0.5c0.1,-0.1 0.3,0 0.4,-0.1c0.2,-0.1 0.3,-0.3 0.4,-0.5c0,-0.1 0,-0.1 0,-0.2c0,-0.1 0.1,-0.2 0.1,-0.3c0,-0.1 -0.1,-0.1 -0.1,-0.2c0,-0.1 0,-0.2 0,-0.3c0,-0.2 0,-0.4 -0.1,-0.5c-0.4,-0.7 -1.2,-0.9 -2,-0.8c0,0.1 -0.2,0.2 -0.3,0.2c-0.2,0.1 -0.1,0.2 -0.3,0.3c-0.1,0 -0.2,0.1 -0.2,0.2c0,0.1 0,0 0,0.1c-0.1,0.1 -0.1,0 0,0" fill="#FFFFFF"/>
     <path id="svg_116" d="m0.5,-2.8c0,0.1 0,0.1 0,0.2c-0.1,0.1 -0.1,0.1 -0.2,0.1c0,0.1 -0.1,0.3 -0.1,0.4c-0.2,0.1 0,0.2 0,0.3c0,0 0,0.1 0,0.2c0,0.1 0,0.3 0.1,0.4c0,0.2 0.2,0.4 0.4,0.5c0.2,0.2 0.3,0.6 0.6,0.7c0.2,0 0.4,-0.1 0.5,-0.1c0.2,0 0.4,0 0.6,-0.1c0.2,-0.1 0.1,-0.3 0.3,-0.5c0.1,-0.1 0.3,0 0.4,-0.1c0.2,0 0.3,-0.2 0.4,-0.4c0,-0.1 0,-0.1 0,-0.2c0,-0.1 0.1,-0.2 0.1,-0.3c0,-0.1 -0.1,-0.1 -0.1,-0.2c0,-0.1 0,-0.2 0,-0.3c0,-0.2 0,-0.4 -0.1,-0.5c-0.4,-0.7 -1.2,-0.9 -2,-0.8c-0.1,0 -0.2,0.1 -0.4,0.1c-0.1,0.1 -0.1,0.2 -0.3,0.3c-0.1,0 -0.2,0.1 -0.2,0.2c0,0.1 0,0 0,0.1c0,0.1 0,0 0,0" fill="#FFFFFF"/>
    </g>
   </g>
  </pattern>
 </defs>
 <g>
  <title>Layer 1</title>
  <path transform="rotate(89.6226 66.0445 49.0435)" id="svg_117" d="m103.7,8.9c-1.2,-0.4 -2.4,-0.5 -3.5,-0.3c-0.4,-3 -2.5,-5.8 -5.6,-7.2l-5.7,-2.6c-1.3,-0.6 -2.7,-0.8 -4.1,-0.5c-1,-3.2 -4.5,-6.1 -8.3,-7.4c-4.1,-1.5 -7.8,-1 -10.2,1c-0.9,-1.5 -2.2,-2.7 -3.9,-3.4l-2.8,-1.1c-2.8,-1.1 -5.9,-1.1 -8.7,0.1c-2.8,1.2 -5,3.4 -6.1,6.2l-3.5,8.8c-1.5,-0.3 -3.1,-0.3 -4.6,0c-2.3,0.5 -4.3,2 -5.4,4.1l-0.5,0.9c-2.5,5 -7.2,14.2 -9.3,18.5c-1,2 -1.3,4.3 -0.9,6.5c0,0.1 0,0.2 0.1,0.3c0,0 0,0 0,0.1c0,0 0,0.1 0,0.1c0.2,0.5 1.4,2.7 8.5,16.1c1.6,3.1 3.8,5.9 6.3,8.2c2.7,2.5 4.7,5.6 5.8,9l0.2,0.6l-1.7,42.6c0,0.5 0.2,1 0.5,1.4c0.4,0.4 0.9,0.6 1.4,0.6l0,0l51.6,0c0.5,0 1,-0.2 1.4,-0.6c0.4,-0.4 0.6,-0.9 0.6,-1.4l-0.7,-34c0,-1.4 -0.1,-2.6 -0.1,-3.6l0,-1.2c0,0 0,0 0,-0.1c0,-0.5 0.2,-3.4 0.3,-4.7c0,-0.2 0,-0.4 0,-0.5c2.7,-2.4 5,-5.3 6.6,-8.6l2.5,-5c1.7,-3.4 3,-7 3.8,-10.8c0,0 0,-0.1 0,-0.1l1.8,-11.7l1.2,-3.1c2.7,-7 -0.5,-14.7 -7,-17.2zm-19.7,-5.8c0.2,-0.6 0.7,-0.9 1,-1c0.3,-0.1 0.7,-0.2 1,-0.2c0.4,0 0.9,0.1 1.3,0.3l5.7,2.6c2.7,1.2 4.1,4 3.2,6.3l0,0.1c-0.4,0.5 -0.7,1.1 -1,1.7l-8.8,22.8c-0.2,0.4 -0.3,0.9 -0.3,1.3c-1,1.1 -2.7,1.5 -4.5,1l-6.6,-1.9c-1,-0.3 -1.7,-0.9 -2.1,-1.7c-0.2,-0.4 -0.4,-1.1 -0.1,-1.8l11.2,-29.5zm-16.2,-6.8c0.8,-2 2.5,-2.5 4.1,-2.5c1.4,0 2.7,0.4 3.3,0.6c3.5,1.2 6.2,3.9 6,5.8c-0.4,0.4 -0.7,1 -0.9,1.5l-10.7,28c-0.5,0.6 -1.2,1.1 -2.1,1.4c-1.4,0.5 -3.1,0.4 -4.7,-0.2l-1.6,-0.6c-1.6,-0.6 -2.9,-1.7 -3.6,-3c-0.6,-1.1 -0.8,-2.2 -0.5,-3.2c1.4,-0.4 2.7,-0.9 4,-1.6c1.8,-0.9 3.1,-2.5 3.7,-4.4c0.6,-1.9 0.4,-3.9 -0.6,-5.7c-0.1,-0.3 -0.4,-0.7 -2,-1.6l5.6,-14.5zm-19.4,-1.2c0.8,-1.9 2.2,-3.3 4,-4.1c1.9,-0.8 3.9,-0.8 5.8,-0.1l2.8,1.1c1.9,0.8 2.9,2.8 2.5,4.8l-1.4,3.6l-3.5,8.8c-2.8,-1.3 -7.1,-3 -13.6,-5.5l3.4,-8.6zm52,55l-2.5,5c-1.5,3.1 -3.6,5.7 -6.2,7.9c0,0 0,0 0,0l-0.5,0.4c-0.5,0.4 -1,0.7 -1.5,1l-6.1,3c-1,0.5 -1.4,1.6 -0.9,2.6c0.3,0.7 1,1.1 1.7,1.1c0.3,0 0.6,-0.1 0.9,-0.2l5.4,-2.7c-0.1,1.4 -0.1,2.2 -0.1,2.5c0,0 0,0 0,0c0,0 0,0 0,0l0,1.1c0,1 0.1,2.2 0.1,3.6l0.7,32l-47.6,0l1.6,-41c0,0 0,-0.1 0,-0.1c0,-0.1 0,-0.1 0,-0.2c0,-0.1 0,-0.1 0,-0.2c0,0 0,-0.1 0,-0.1l-0.3,-1c-1.3,-4.1 -3.7,-7.8 -6.9,-10.7c-2.2,-2.1 -4.1,-4.5 -5.5,-7.2c-4.7,-8.9 -7.7,-14.7 -8.3,-15.7c-0.2,-1.3 0,-2.6 0.6,-3.8c2.2,-4.3 6.8,-13.5 9.3,-18.5l0.5,-0.9c0.5,-1 1.5,-1.8 2.7,-2c1.5,-0.3 3.1,-0.1 4.5,0.4l0.5,0.2c7.9,3 16.8,6.6 18.4,7.8c0.4,0.8 0.4,1.6 0.2,2.4c-0.3,0.9 -0.9,1.6 -1.7,2.1c-3.1,1.6 -6.6,2.3 -10,2.2l-4.6,-0.2l-3.4,-3.5c-0.6,-0.7 -1.7,-0.8 -2.5,-0.3c-0.9,0.6 -1.1,1.8 -0.6,2.7c0.1,0.1 0.1,0.2 0.2,0.3l3.4,3.4l-0.2,2.3l-1.4,-0.2c-0.3,0 -0.5,0 -0.8,0.1l-0.4,0.1c-1,0.3 -1.6,1.4 -1.3,2.4c0.3,1 1.4,1.6 2.4,1.3l0,0l2.5,0.3l5.5,4.7c2.8,2.4 5.5,4.3 8.3,5.8c3.2,1.7 5.8,4.2 7.6,7.2l0.6,1c2.4,3.9 3.3,8.5 2.7,13l-1.4,10.5c-0.1,1.1 0.6,2 1.7,2.2c0.1,0 0.2,0 0.2,0c1,0 1.8,-0.7 1.9,-1.7l1.4,-10.5c0.7,-5.4 -0.4,-10.9 -3.2,-15.5l-0.6,-1c-2.2,-3.6 -5.4,-6.6 -9.1,-8.6c-2.5,-1.3 -5,-3.1 -7.6,-5.3l-5.2,-4.5l0.2,-2.3l3.4,0.2c1.3,0.1 2.6,0 3.9,-0.2c0,1.4 0.4,2.9 1.1,4.3c1.2,2.1 3.2,3.8 5.6,4.7l1.6,0.6c1.3,0.5 2.7,0.8 4,0.8c1.1,0 2.3,-0.2 3.3,-0.5c0,0 0.1,0 0.1,0c0.1,0.4 0.3,0.9 0.5,1.3c0.9,1.8 2.5,3.1 4.5,3.7l6.6,1.9c0.8,0.2 1.7,0.4 2.5,0.4c1.3,0 2.6,-0.3 3.8,-0.8c0.1,0.2 0.2,0.3 0.3,0.5c1.1,1.6 2.8,2.5 4.7,2.6l2.3,0c0,0 0.1,0 0.1,0c3.6,0 7.1,-1.5 9.7,-4.1c-0.6,3.5 -1.8,6.8 -3.3,9.9zm6.6,-25.3l-1.3,3.3c0,0 0,0 0,0l-2.2,5.6c-1.6,4.2 -5.4,6.9 -9.5,6.8l-2.3,0c-0.9,0 -1.3,-0.5 -1.6,-0.9c-0.5,-0.7 -0.5,-1.6 -0.2,-2.4l8.8,-22.8c0.6,-1.6 2.2,-2.4 3.5,-1.9c4.7,1.7 6.8,7.2 4.8,12.3z"/>
 </g>
</svg>